<svg id="svg" version="1.1" width="400" height="300" viewBox="0 0 400 300" xmlns="http://www.w3.org/2000/svg" xmlns:xlink="http://www.w3.org/1999/xlink" ><g id="svgg"><path id="path0" d="M70.218 103.076 L 70.218 107.127 74.419 107.127 L 78.620 107.127 78.620 118.980 L 78.620 130.833 83.871 130.833 L 89.122 130.833 89.122 118.980 L 89.122 107.127 93.173 107.127 C 97.024 107.127,97.224 107.097,97.224 106.527 C 97.224 106.197,97.359 105.926,97.524 105.926 C 97.689 105.926,97.824 106.467,97.824 107.127 C 97.824 107.787,97.959 108.327,98.125 108.327 C 98.290 108.327,98.425 108.935,98.425 109.677 C 98.425 110.420,98.560 111.028,98.725 111.028 C 98.890 111.028,99.025 111.627,99.025 112.360 C 99.025 113.093,99.160 113.776,99.325 113.878 C 99.490 113.980,99.625 114.588,99.625 115.229 C 99.625 115.869,99.760 116.477,99.925 116.579 C 100.090 116.681,100.225 117.233,100.225 117.807 C 100.225 118.456,100.395 118.914,100.675 119.021 C 100.990 119.142,101.125 119.634,101.125 120.662 C 101.125 121.470,101.260 122.131,101.425 122.131 C 101.590 122.131,101.725 122.738,101.725 123.481 C 101.725 124.224,101.860 124.831,102.026 124.831 C 102.191 124.831,102.326 125.371,102.326 126.032 C 102.326 126.692,102.461 127.232,102.626 127.232 C 102.791 127.232,102.926 127.849,102.926 128.604 C 102.926 130.799,103.020 130.833,109.206 130.833 L 114.629 130.833 114.629 129.632 C 114.629 128.972,114.764 128.432,114.929 128.432 C 115.094 128.432,115.229 127.892,115.229 127.232 C 115.229 126.572,115.364 126.032,115.529 126.032 C 115.694 126.032,115.829 125.424,115.829 124.681 C 115.829 123.938,115.964 123.331,116.129 123.331 C 116.294 123.331,116.429 122.849,116.429 122.259 C 116.429 121.670,116.632 120.985,116.879 120.737 C 117.127 120.490,117.329 119.765,117.329 119.126 C 117.329 118.487,117.464 117.881,117.629 117.779 C 117.794 117.677,117.929 117.062,117.929 116.411 C 117.929 115.761,118.065 115.229,118.230 115.229 C 118.395 115.229,118.530 115.634,118.530 116.129 C 118.530 116.624,118.665 117.029,118.830 117.029 C 118.995 117.029,119.130 117.637,119.130 118.380 C 119.130 119.122,119.265 119.730,119.430 119.730 C 119.595 119.730,119.730 120.270,119.730 120.930 C 119.730 121.590,119.865 122.131,120.030 122.131 C 120.195 122.131,120.330 122.798,120.330 123.613 C 120.330 124.429,120.465 125.179,120.630 125.281 C 120.795 125.383,120.930 125.923,120.930 126.482 C 120.930 127.040,121.065 127.580,121.230 127.682 C 121.395 127.784,121.530 128.342,121.530 128.921 C 121.530 130.766,121.756 130.833,127.961 130.833 L 133.533 130.833 133.533 129.932 C 133.533 129.437,133.668 129.032,133.833 129.032 C 133.998 129.032,134.134 128.357,134.134 127.532 C 134.134 126.707,134.269 126.032,134.434 126.032 C 134.599 126.032,134.734 125.424,134.734 124.681 C 134.734 123.938,134.869 123.331,135.034 123.331 C 135.199 123.331,135.334 122.791,135.334 122.131 C 135.334 121.470,135.469 120.930,135.634 120.930 C 135.799 120.930,135.934 120.255,135.934 119.430 C 135.934 118.605,136.069 117.929,136.234 117.929 C 136.399 117.929,136.534 117.322,136.534 116.579 C 136.534 115.836,136.669 115.229,136.834 115.229 C 136.999 115.229,137.134 114.689,137.134 114.029 C 137.134 113.368,137.269 112.828,137.434 112.828 C 137.599 112.828,137.734 112.296,137.734 111.646 C 137.734 110.995,137.869 110.380,138.035 110.278 C 138.221 110.163,138.335 110.719,138.335 111.743 C 138.335 112.650,138.200 113.476,138.035 113.578 C 137.644 113.820,137.644 116.338,138.035 116.579 C 138.200 116.681,138.335 117.557,138.335 118.526 C 138.335 119.691,138.487 120.439,138.785 120.737 C 139.032 120.985,139.235 121.535,139.235 121.959 C 139.235 122.383,139.370 122.731,139.535 122.731 C 139.700 122.731,139.835 123.001,139.835 123.331 C 139.835 123.661,139.970 123.931,140.135 123.931 C 140.300 123.931,140.435 124.134,140.435 124.381 C 140.435 124.629,140.570 124.831,140.735 124.831 C 140.900 124.831,141.035 125.037,141.035 125.288 C 141.035 125.882,144.185 129.032,144.780 129.032 C 145.031 129.032,145.236 129.167,145.236 129.332 C 145.236 129.497,145.574 129.632,145.986 129.632 C 146.399 129.632,146.737 129.767,146.737 129.932 C 146.737 130.098,147.007 130.233,147.337 130.233 C 147.667 130.233,147.937 130.368,147.937 130.533 C 147.937 130.698,148.477 130.833,149.137 130.833 C 150.004 130.833,150.338 130.958,150.338 131.283 C 150.338 131.665,151.088 131.733,155.289 131.733 C 159.490 131.733,160.240 131.665,160.240 131.283 C 160.240 130.959,160.572 130.833,161.423 130.833 C 162.073 130.833,162.689 130.698,162.791 130.533 C 162.893 130.368,163.238 130.233,163.559 130.233 C 163.879 130.233,164.141 130.098,164.141 129.932 C 164.141 129.767,164.381 129.632,164.675 129.632 C 164.969 129.632,165.404 129.362,165.641 129.032 C 165.879 128.702,166.250 128.432,166.464 128.432 C 167.334 128.432,171.043 124.187,171.043 123.191 C 171.043 122.938,171.178 122.731,171.343 122.731 C 171.508 122.731,171.643 122.461,171.643 122.131 C 171.643 121.800,171.778 121.530,171.943 121.530 C 172.108 121.530,172.243 120.998,172.243 120.348 C 172.243 119.697,172.378 119.082,172.543 118.980 C 172.718 118.872,172.843 117.176,172.843 114.911 C 172.843 112.522,172.728 111.028,172.543 111.028 C 172.378 111.028,172.243 110.488,172.243 109.827 C 172.243 109.167,172.108 108.627,171.943 108.627 C 171.778 108.627,171.643 108.425,171.643 108.177 C 171.643 107.929,171.452 107.727,171.218 107.727 C 170.984 107.727,170.748 107.617,170.693 107.483 C 170.638 107.349,168.500 106.392,165.941 105.355 C 163.383 104.319,160.885 103.295,160.390 103.081 C 159.895 102.867,158.882 102.463,158.140 102.184 C 157.397 101.905,156.384 101.497,155.889 101.278 C 151.837 99.483,148.537 98.607,148.537 99.325 C 148.537 99.490,148.267 99.625,147.937 99.625 C 147.604 99.625,147.337 99.825,147.337 100.075 C 147.337 100.355,147.053 100.525,146.587 100.525 C 146.174 100.525,145.836 100.660,145.836 100.825 C 145.836 100.990,145.596 101.125,145.303 101.125 C 145.009 101.125,144.574 101.395,144.336 101.725 C 144.098 102.056,143.725 102.326,143.506 102.326 C 142.991 102.326,141.635 103.681,141.635 104.196 C 141.635 104.415,141.365 104.788,141.035 105.026 C 140.705 105.264,140.435 105.699,140.435 105.993 C 140.435 106.286,140.300 106.527,140.135 106.527 C 139.970 106.527,139.835 106.864,139.835 107.277 C 139.835 107.689,139.700 108.027,139.535 108.027 C 139.370 108.027,139.235 108.432,139.235 108.927 C 139.235 109.527,139.085 109.827,138.785 109.827 C 138.451 109.827,138.335 109.477,138.335 108.477 C 138.335 107.734,138.470 107.127,138.635 107.127 C 138.800 107.127,138.935 106.645,138.935 106.055 C 138.935 105.466,139.137 104.781,139.385 104.533 C 139.632 104.286,139.835 103.628,139.835 103.072 C 139.835 102.516,139.970 101.977,140.135 101.875 C 140.300 101.773,140.435 101.090,140.435 100.357 L 140.435 99.025 135.442 99.025 C 129.725 99.025,129.658 99.053,129.642 101.500 C 129.637 102.284,129.497 102.926,129.332 102.926 C 129.167 102.926,129.032 103.601,129.032 104.426 C 129.032 105.251,128.897 105.926,128.732 105.926 C 128.567 105.926,128.432 106.669,128.432 107.577 C 128.432 108.485,128.297 109.227,128.132 109.227 C 127.967 109.227,127.832 109.902,127.832 110.728 C 127.832 111.553,127.697 112.228,127.532 112.228 C 127.367 112.228,127.232 112.836,127.232 113.578 C 127.232 114.321,127.097 114.929,126.932 114.929 C 126.767 114.929,126.632 114.397,126.632 113.746 C 126.632 113.096,126.497 112.480,126.332 112.378 C 126.167 112.276,126.032 111.660,126.032 111.010 C 126.032 110.360,125.910 109.827,125.760 109.827 C 125.611 109.827,125.414 109.186,125.322 108.402 C 124.954 105.266,124.746 104.375,124.347 104.222 C 124.071 104.115,123.931 103.569,123.931 102.594 C 123.931 101.786,123.796 101.125,123.631 101.125 C 123.466 101.125,123.331 100.653,123.331 100.075 L 123.331 99.025 118.380 99.025 L 113.428 99.025 113.428 99.775 C 113.428 100.188,113.293 100.525,113.128 100.525 C 112.963 100.525,112.828 101.200,112.828 102.026 C 112.828 102.851,112.693 103.526,112.528 103.526 C 112.363 103.526,112.228 104.193,112.228 105.009 C 112.228 105.824,112.093 106.575,111.928 106.677 C 111.763 106.779,111.628 107.529,111.628 108.345 C 111.628 109.160,111.493 109.827,111.328 109.827 C 111.163 109.827,111.028 110.445,111.028 111.199 C 111.028 112.670,110.347 113.834,110.007 112.946 C 109.908 112.689,109.827 112.027,109.827 111.475 C 109.827 110.922,109.625 110.268,109.377 110.020 C 109.096 109.739,108.927 109.001,108.927 108.048 C 108.927 107.211,108.792 106.527,108.627 106.527 C 108.462 106.527,108.327 105.851,108.327 105.026 C 108.327 104.201,108.192 103.526,108.027 103.526 C 107.860 103.526,107.727 102.726,107.727 101.725 C 107.727 100.725,107.594 99.925,107.427 99.925 C 107.262 99.925,107.127 99.722,107.127 99.475 C 107.127 99.080,104.876 99.025,88.672 99.025 L 70.218 99.025 70.218 103.076 M156.639 106.827 C 156.639 106.992,156.909 107.127,157.239 107.127 C 157.569 107.127,157.839 107.262,157.839 107.427 C 157.839 107.592,158.052 107.727,158.311 107.727 C 158.845 107.727,159.640 108.426,159.640 108.897 C 159.640 109.068,159.910 109.690,160.240 110.278 C 160.570 110.865,160.840 111.886,160.840 112.547 C 160.840 113.337,160.994 113.806,161.290 113.920 C 161.568 114.027,161.740 114.483,161.740 115.111 C 161.740 115.816,161.602 116.129,161.290 116.129 C 160.957 116.129,160.840 116.480,160.840 117.483 C 160.840 118.850,160.526 119.654,159.565 120.746 C 159.276 121.075,159.040 121.521,159.040 121.737 C 159.040 121.953,158.833 122.131,158.580 122.131 C 158.327 122.131,158.043 122.333,157.948 122.581 C 157.853 122.828,157.520 123.031,157.207 123.031 C 156.895 123.031,156.639 123.166,156.639 123.331 C 156.639 123.496,156.167 123.631,155.589 123.631 C 155.011 123.631,154.539 123.496,154.539 123.331 C 154.539 123.166,154.134 123.031,153.638 123.031 C 153.143 123.031,152.738 122.882,152.738 122.701 C 152.738 122.520,152.333 121.993,151.838 121.530 C 151.343 121.068,150.938 120.474,150.938 120.210 C 150.938 119.946,150.803 119.730,150.638 119.730 C 150.473 119.730,150.338 119.325,150.338 118.830 C 150.338 118.335,150.203 117.929,150.038 117.929 C 149.857 117.929,149.737 116.679,149.737 114.779 C 149.737 112.878,149.857 111.628,150.038 111.628 C 150.203 111.628,150.338 111.429,150.338 111.187 C 150.338 109.822,152.619 107.127,153.775 107.127 C 154.195 107.127,154.539 106.992,154.539 106.827 C 154.539 106.662,155.011 106.527,155.589 106.527 C 156.167 106.527,156.639 106.662,156.639 106.827 M128.432 133.833 C 128.432 133.998,128.027 134.134,127.532 134.134 C 127.037 134.134,126.632 134.269,126.632 134.434 C 126.632 134.599,126.227 134.734,125.731 134.734 C 125.236 134.734,124.831 134.869,124.831 135.034 C 124.831 135.199,124.619 135.334,124.360 135.334 C 124.100 135.334,123.718 135.503,123.509 135.709 C 123.300 135.915,122.757 136.354,122.301 136.684 C 120.834 137.745,119.730 138.864,119.730 139.289 C 119.730 139.516,119.460 139.897,119.130 140.135 C 118.800 140.373,118.530 140.808,118.530 141.102 C 118.530 141.395,118.395 141.635,118.230 141.635 C 118.065 141.635,117.929 141.905,117.929 142.236 C 117.929 142.566,117.794 142.836,117.629 142.836 C 117.464 142.836,117.329 143.241,117.329 143.736 C 117.329 144.231,117.194 144.636,117.029 144.636 C 116.860 144.636,116.729 145.476,116.729 146.555 C 116.729 147.983,116.614 148.517,116.279 148.646 C 115.981 148.760,115.829 149.231,115.829 150.038 C 115.829 150.844,115.981 151.315,116.279 151.429 C 116.623 151.561,116.729 152.125,116.729 153.821 C 116.729 155.099,116.856 156.039,117.029 156.039 C 117.194 156.039,117.329 156.444,117.329 156.939 C 117.329 157.434,117.464 157.839,117.629 157.839 C 117.794 157.839,117.929 158.110,117.929 158.440 C 117.929 158.770,118.065 159.040,118.230 159.040 C 118.395 159.040,118.530 159.280,118.530 159.574 C 118.530 159.867,118.800 160.302,119.130 160.540 C 119.460 160.778,119.730 161.081,119.730 161.214 C 119.730 161.651,122.404 164.141,122.873 164.141 C 123.125 164.141,123.331 164.276,123.331 164.441 C 123.331 164.606,123.668 164.741,124.081 164.741 C 124.494 164.741,124.831 164.876,124.831 165.041 C 124.831 165.206,125.101 165.341,125.431 165.341 C 125.761 165.341,126.032 165.476,126.032 165.641 C 126.032 165.806,126.437 165.941,126.932 165.941 C 127.427 165.941,127.832 166.077,127.832 166.242 C 127.832 166.430,129.782 166.542,133.083 166.542 C 136.384 166.542,138.335 166.430,138.335 166.242 C 138.335 166.077,138.942 165.941,139.685 165.941 C 140.428 165.941,141.035 165.806,141.035 165.641 C 141.035 165.476,141.305 165.341,141.635 165.341 C 141.965 165.341,142.236 165.206,142.236 165.041 C 142.236 164.876,142.506 164.741,142.836 164.741 C 143.166 164.741,143.436 164.606,143.436 164.441 C 143.436 164.276,143.638 164.141,143.884 164.141 C 144.411 164.141,147.337 161.358,147.337 160.857 C 147.337 160.669,147.607 160.225,147.937 159.871 C 148.267 159.517,148.537 158.915,148.537 158.533 C 148.537 158.152,148.672 157.839,148.837 157.839 C 149.002 157.839,149.137 157.299,149.137 156.639 C 149.137 155.979,149.272 155.439,149.437 155.439 C 149.621 155.439,149.737 153.988,149.737 151.688 L 149.737 147.937 141.635 147.937 L 133.533 147.937 133.533 151.388 L 133.533 154.839 135.934 154.839 C 138.065 154.839,138.335 154.901,138.335 155.391 C 138.335 156.175,136.402 157.839,135.492 157.839 C 135.075 157.839,134.734 157.974,134.734 158.140 C 134.734 158.305,134.337 158.440,133.851 158.440 C 133.366 158.440,132.885 158.305,132.783 158.140 C 132.681 157.974,132.265 157.839,131.857 157.839 C 130.841 157.839,128.432 155.418,128.432 154.396 C 128.432 153.980,128.297 153.638,128.132 153.638 C 127.949 153.638,127.832 152.294,127.832 150.205 C 127.832 148.240,127.960 146.693,128.132 146.587 C 128.297 146.485,128.432 146.139,128.432 145.819 C 128.432 145.498,128.567 145.236,128.732 145.236 C 128.897 145.236,129.032 145.029,129.032 144.776 C 129.032 144.031,131.027 142.236,131.855 142.236 C 132.264 142.236,132.681 142.101,132.783 141.935 C 132.885 141.770,133.366 141.635,133.851 141.635 C 134.337 141.635,134.734 141.770,134.734 141.935 C 134.734 142.101,134.942 142.236,135.197 142.236 C 136.006 142.236,137.734 144.380,137.734 145.382 C 137.734 145.772,138.545 145.836,143.436 145.836 L 149.137 145.836 149.137 145.104 C 149.137 144.701,149.002 144.288,148.837 144.186 C 148.672 144.084,148.537 143.468,148.537 142.818 C 148.537 142.168,148.402 141.635,148.237 141.635 C 148.072 141.635,147.937 141.439,147.937 141.199 C 147.937 140.448,147.259 139.235,146.839 139.235 C 146.617 139.235,146.437 138.965,146.437 138.635 C 146.437 138.305,146.324 138.035,146.187 138.035 C 146.050 138.035,145.757 137.697,145.536 137.284 C 145.316 136.872,144.917 136.534,144.652 136.534 C 144.386 136.534,143.974 136.264,143.736 135.934 C 143.498 135.604,143.063 135.334,142.769 135.334 C 142.476 135.334,142.236 135.199,142.236 135.034 C 142.236 134.869,141.965 134.734,141.635 134.734 C 141.305 134.734,141.035 134.599,141.035 134.434 C 141.035 134.269,140.428 134.134,139.685 134.134 C 138.942 134.134,138.335 133.998,138.335 133.833 C 138.335 133.646,136.484 133.533,133.383 133.533 C 130.283 133.533,128.432 133.646,128.432 133.833 M197.149 133.833 C 197.149 133.998,196.744 134.134,196.249 134.134 C 195.754 134.134,195.349 134.269,195.349 134.434 C 195.349 134.599,195.079 134.734,194.749 134.734 C 194.419 134.734,194.149 134.869,194.149 135.034 C 194.149 135.199,193.943 135.334,193.692 135.334 C 193.087 135.334,190.248 138.160,190.248 138.763 C 190.248 139.022,190.113 139.235,189.947 139.235 C 189.771 139.235,189.647 138.185,189.647 136.684 L 189.647 134.134 176.294 134.134 L 162.941 134.134 162.941 138.185 L 162.941 142.236 166.992 142.236 L 171.043 142.236 171.043 154.089 L 171.043 165.941 176.294 165.941 L 181.545 165.941 181.545 154.089 L 181.545 142.236 185.296 142.236 L 189.047 142.236 189.047 144.618 C 189.047 145.929,189.182 147.085,189.347 147.187 C 189.512 147.289,189.647 147.614,189.647 147.909 C 189.647 149.207,191.480 151.538,192.500 151.538 C 192.747 151.538,192.948 151.673,192.948 151.838 C 192.948 152.003,193.218 152.138,193.548 152.138 C 193.878 152.138,194.149 152.273,194.149 152.438 C 194.149 152.603,194.419 152.738,194.749 152.738 C 195.079 152.738,195.349 152.873,195.349 153.038 C 195.349 153.203,195.875 153.338,196.517 153.338 C 197.279 153.338,197.745 153.495,197.858 153.788 C 197.989 154.129,198.542 154.239,200.141 154.239 C 201.347 154.239,202.251 154.367,202.251 154.539 C 202.251 154.704,202.561 154.839,202.941 154.839 C 203.321 154.839,203.995 155.008,204.439 155.214 C 205.803 155.847,205.387 158.440,203.922 158.440 C 203.663 158.440,203.451 158.575,203.451 158.740 C 203.451 158.905,203.046 159.040,202.551 159.040 C 202.056 159.040,201.650 158.905,201.650 158.740 C 201.650 158.575,201.414 158.439,201.125 158.439 C 200.262 158.439,198.950 157.106,198.950 156.229 L 198.950 155.439 193.698 155.439 L 188.447 155.439 188.447 157.239 C 188.447 158.240,188.580 159.040,188.747 159.040 C 188.912 159.040,189.047 159.445,189.047 159.940 C 189.047 160.435,189.182 160.840,189.347 160.840 C 189.512 160.840,189.647 161.061,189.647 161.330 C 189.647 161.951,192.457 164.741,193.081 164.741 C 193.338 164.741,193.548 164.876,193.548 165.041 C 193.548 165.206,193.818 165.341,194.149 165.341 C 194.479 165.341,194.749 165.476,194.749 165.641 C 194.749 165.806,195.231 165.941,195.820 165.941 C 196.410 165.941,197.075 166.124,197.298 166.347 C 197.599 166.649,198.077 166.692,199.152 166.515 C 199.949 166.384,201.613 166.268,202.851 166.256 C 208.767 166.199,216.054 161.612,216.054 157.943 C 216.054 157.246,216.189 156.591,216.354 156.489 C 216.519 156.387,216.654 155.915,216.654 155.439 C 216.654 154.963,216.519 154.491,216.354 154.389 C 216.189 154.287,216.054 153.619,216.054 152.905 C 216.054 150.998,213.395 147.337,212.011 147.337 C 211.759 147.337,211.553 147.202,211.553 147.037 C 211.553 146.872,211.148 146.737,210.653 146.737 C 210.158 146.737,209.752 146.602,209.752 146.437 C 209.752 146.272,209.145 146.137,208.402 146.137 C 207.659 146.137,207.052 146.002,207.052 145.836 C 207.052 145.665,206.152 145.536,204.951 145.536 C 203.284 145.536,202.851 145.444,202.851 145.086 C 202.851 144.795,202.559 144.636,202.026 144.636 C 201.081 144.635,199.550 143.454,199.550 142.726 C 199.550 142.456,199.752 142.236,200.000 142.236 C 200.248 142.236,200.450 142.101,200.450 141.935 C 200.450 141.770,200.720 141.635,201.050 141.635 C 201.380 141.635,201.650 141.500,201.650 141.335 C 201.650 141.170,201.920 141.035,202.251 141.035 C 202.581 141.035,202.851 141.170,202.851 141.335 C 202.851 141.500,203.063 141.635,203.322 141.635 C 204.031 141.635,204.651 142.396,204.651 143.264 L 204.651 144.036 210.053 144.036 L 215.454 144.036 215.454 142.857 C 215.454 142.209,215.251 141.476,215.004 141.228 C 214.756 140.981,214.554 140.431,214.554 140.006 C 214.554 139.582,214.419 139.235,214.254 139.235 C 214.089 139.235,213.953 138.965,213.953 138.635 C 213.953 138.305,213.818 138.035,213.653 138.035 C 213.488 138.035,213.353 137.896,213.353 137.727 C 213.353 137.251,210.725 134.734,210.228 134.734 C 209.986 134.734,209.704 134.599,209.602 134.434 C 209.500 134.269,208.885 134.134,208.234 134.134 C 207.584 134.134,207.052 133.998,207.052 133.833 C 207.052 133.646,205.201 133.533,202.101 133.533 C 199.000 133.533,197.149 133.646,197.149 133.833 M72.318 150.038 L 72.318 165.941 81.320 165.941 C 87.122 165.941,90.323 165.835,90.323 165.641 C 90.323 165.476,90.863 165.341,91.523 165.341 C 92.183 165.341,92.723 165.206,92.723 165.041 C 92.723 164.876,93.057 164.741,93.464 164.741 C 94.703 164.741,98.425 162.137,98.425 161.271 C 98.425 161.166,98.830 160.703,99.325 160.240 C 99.820 159.778,100.225 159.183,100.225 158.919 C 100.225 158.656,100.360 158.440,100.525 158.440 C 100.690 158.440,100.825 158.170,100.825 157.839 C 100.825 157.509,100.960 157.239,101.125 157.239 C 101.290 157.239,101.425 156.716,101.425 156.076 C 101.425 155.408,101.617 154.753,101.875 154.539 C 102.238 154.237,102.326 153.307,102.326 149.737 C 102.326 146.168,102.238 145.237,101.875 144.936 C 101.628 144.731,101.425 144.174,101.425 143.699 C 101.425 143.224,101.290 142.836,101.125 142.836 C 100.960 142.836,100.825 142.460,100.825 142.002 C 100.825 141.512,100.577 140.989,100.225 140.735 C 99.895 140.497,99.625 140.133,99.625 139.926 C 99.625 139.433,96.857 136.534,96.387 136.534 C 96.187 136.534,96.024 136.399,96.024 136.234 C 96.024 136.069,95.762 135.934,95.442 135.934 C 95.121 135.934,94.776 135.799,94.674 135.634 C 94.572 135.469,94.226 135.334,93.906 135.334 C 93.585 135.334,93.323 135.199,93.323 135.034 C 93.323 134.869,92.783 134.734,92.123 134.734 C 91.463 134.734,90.923 134.599,90.923 134.434 C 90.923 134.240,87.622 134.134,81.620 134.134 L 72.318 134.134 72.318 150.038 M103.526 150.038 L 103.526 165.941 109.077 165.941 L 114.629 165.941 114.629 150.038 L 114.629 134.134 109.077 134.134 L 103.526 134.134 103.526 150.038 M150.338 150.038 L 150.338 165.941 155.889 165.941 L 161.440 165.941 161.440 150.038 L 161.440 134.134 155.889 134.134 L 150.338 134.134 150.338 150.038 M86.122 142.536 C 86.122 142.701,86.463 142.836,86.880 142.836 C 88.188 142.836,90.323 145.249,90.323 146.729 C 90.323 147.393,90.458 147.937,90.623 147.937 C 90.794 147.937,90.923 148.831,90.923 150.020 C 90.923 151.165,90.788 152.186,90.623 152.288 C 90.458 152.390,90.323 152.871,90.323 153.356 C 90.323 153.841,90.188 154.239,90.023 154.239 C 89.857 154.239,89.722 154.446,89.722 154.699 C 89.722 155.455,87.727 157.239,86.882 157.239 C 86.464 157.239,86.122 157.374,86.122 157.539 C 86.122 157.704,85.514 157.839,84.771 157.839 L 83.421 157.839 83.421 150.038 L 83.421 142.236 84.771 142.236 C 85.514 142.236,86.122 142.371,86.122 142.536 M111.028 171.118 L 111.029 173.593 108.178 173.498 C 106.295 173.435,105.326 173.511,105.326 173.723 C 105.326 173.899,105.154 174.044,104.943 174.044 C 104.448 174.044,103.526 175.120,103.526 175.697 C 103.526 175.943,103.391 176.144,103.226 176.144 C 103.044 176.144,102.926 177.444,102.926 179.445 C 102.926 181.445,103.044 182.746,103.226 182.746 C 103.391 182.746,103.526 182.947,103.526 183.192 C 103.526 183.770,104.448 184.846,104.943 184.846 C 105.154 184.846,105.326 184.978,105.326 185.140 C 105.326 185.320,107.354 185.432,110.578 185.431 L 115.829 185.428 115.829 177.035 L 115.829 168.642 113.428 168.642 L 111.028 168.642 111.028 171.118 M117.404 169.400 C 115.914 170.991,117.169 172.843,119.738 172.843 C 121.619 172.843,122.131 172.394,122.131 170.743 C 122.131 168.548,119.027 167.666,117.404 169.400 M161.740 174.900 C 161.740 178.341,161.827 181.987,161.933 183.002 L 162.126 184.846 163.884 184.846 L 165.641 184.846 165.641 182.803 C 165.641 181.471,165.795 180.557,166.082 180.177 C 166.324 179.857,166.527 179.281,166.532 178.898 C 166.550 177.584,167.315 177.197,168.315 177.997 C 169.409 178.873,169.533 179.316,169.538 182.371 L 169.542 184.846 171.343 184.846 L 173.143 184.846 173.143 181.385 C 173.143 178.610,173.246 177.766,173.662 177.132 C 174.043 176.550,174.083 176.307,173.812 176.217 C 173.609 176.149,173.443 175.829,173.443 175.505 C 173.443 174.014,172.142 173.394,169.234 173.497 L 166.540 173.593 166.541 171.118 L 166.542 168.642 164.141 168.642 L 161.740 168.642 161.740 174.900 M194.805 169.259 C 193.448 169.803,192.648 171.057,192.648 172.641 C 192.648 173.497,192.517 173.711,191.898 173.867 C 190.843 174.131,190.781 176.050,191.823 176.198 C 192.482 176.292,192.500 176.393,192.581 180.570 L 192.665 184.846 194.449 184.846 L 196.233 184.846 196.316 180.570 L 196.399 176.294 197.524 176.201 C 199.306 176.053,199.245 174.146,197.449 173.859 C 195.522 173.550,195.838 171.343,197.809 171.343 C 198.590 171.343,198.650 171.257,198.650 170.143 L 198.650 168.942 197.074 168.961 C 196.208 168.972,195.187 169.106,194.805 169.259 M77.719 169.542 C 77.719 169.707,77.449 169.842,77.119 169.842 C 76.789 169.842,76.519 169.977,76.519 170.143 C 76.519 170.308,76.310 170.443,76.055 170.443 C 75.455 170.443,74.119 171.779,74.119 172.379 C 74.119 172.635,73.983 172.843,73.818 172.843 C 73.653 172.843,73.518 173.113,73.518 173.443 C 73.518 173.773,73.383 174.044,73.218 174.044 C 73.036 174.044,72.918 175.394,72.918 177.494 C 72.918 179.595,73.036 180.945,73.218 180.945 C 73.383 180.945,73.518 181.161,73.518 181.425 C 73.518 181.689,73.923 182.283,74.419 182.746 C 74.914 183.208,75.319 183.686,75.319 183.808 C 75.319 184.204,76.352 184.827,77.027 184.837 C 77.388 184.842,77.767 184.981,77.869 185.146 C 77.976 185.318,79.517 185.446,81.470 185.446 C 83.424 185.446,84.965 185.318,85.071 185.146 C 85.173 184.981,85.462 184.846,85.713 184.846 C 86.306 184.846,88.522 182.606,88.522 182.007 C 88.522 181.753,88.657 181.545,88.822 181.545 C 88.987 181.545,89.122 181.786,89.122 182.079 C 89.122 182.373,89.392 182.808,89.722 183.046 C 90.053 183.284,90.323 183.626,90.323 183.807 C 90.323 183.987,90.875 184.430,91.551 184.791 C 92.887 185.504,99.025 185.796,99.025 185.146 C 99.025 184.981,99.237 184.846,99.496 184.846 C 100.035 184.846,100.825 184.145,100.825 183.667 C 100.825 183.491,100.960 183.346,101.125 183.346 C 101.290 183.346,101.425 183.076,101.425 182.746 C 101.425 182.412,101.625 182.146,101.875 182.146 C 102.754 182.146,102.499 176.945,101.575 176.021 C 101.163 175.609,100.825 175.188,100.825 175.086 C 100.825 174.723,99.960 174.044,99.496 174.044 C 99.237 174.044,99.025 173.908,99.025 173.743 C 99.025 173.247,92.968 173.367,91.931 173.885 C 90.876 174.411,89.722 175.671,89.722 176.296 C 89.722 176.543,89.587 176.744,89.422 176.744 C 89.257 176.744,89.122 177.149,89.122 177.644 L 89.122 178.545 86.272 178.545 L 83.421 178.545 83.421 179.316 C 83.421 180.173,82.803 180.945,82.117 180.945 C 81.871 180.945,81.592 181.114,81.495 181.320 C 81.355 181.620,81.285 181.620,81.145 181.320 C 81.049 181.114,80.711 180.945,80.395 180.945 C 80.079 180.945,79.820 180.810,79.820 180.645 C 79.820 180.480,79.617 180.345,79.370 180.345 C 79.070 180.345,78.920 180.045,78.920 179.445 C 78.920 178.950,78.785 178.545,78.620 178.545 C 78.455 178.545,78.320 177.937,78.320 177.194 C 78.320 176.452,78.455 175.844,78.620 175.844 C 78.785 175.844,78.920 175.439,78.920 174.944 C 78.920 174.344,79.070 174.044,79.370 174.044 C 79.617 174.044,79.820 173.908,79.820 173.743 C 79.820 173.578,80.079 173.443,80.395 173.443 C 80.711 173.443,81.049 173.275,81.145 173.068 C 81.285 172.768,81.355 172.768,81.495 173.068 C 81.592 173.275,81.929 173.443,82.246 173.443 C 82.568 173.443,82.821 173.650,82.821 173.915 C 82.821 174.955,83.598 175.244,86.400 175.244 L 89.122 175.244 89.122 174.044 C 89.122 173.383,88.987 172.843,88.822 172.843 C 88.657 172.843,88.522 172.635,88.522 172.379 C 88.522 171.857,87.217 170.443,86.735 170.443 C 86.563 170.443,86.422 170.308,86.422 170.143 C 86.422 169.977,86.152 169.842,85.821 169.842 C 85.491 169.842,85.221 169.707,85.221 169.542 C 85.221 169.358,83.771 169.242,81.470 169.242 C 79.170 169.242,77.719 169.358,77.719 169.542 M153.538 171.243 C 153.428 171.353,153.338 171.893,153.338 172.443 C 153.338 173.243,153.218 173.443,152.738 173.443 C 152.217 173.443,152.138 173.643,152.138 174.972 C 152.138 176.248,152.237 176.526,152.738 176.657 C 153.281 176.799,153.338 177.067,153.338 179.458 C 153.338 181.409,153.456 182.221,153.788 182.553 C 154.036 182.800,154.239 183.268,154.239 183.592 C 154.239 184.580,159.431 185.387,160.134 184.509 C 161.070 183.339,160.808 180.257,159.854 181.211 C 159.188 181.878,159.040 181.502,159.040 179.145 L 159.040 176.744 159.940 176.744 C 160.831 176.744,160.840 176.728,160.840 175.094 C 160.840 173.460,160.831 173.443,159.940 173.443 C 159.090 173.443,159.040 173.377,159.040 172.243 L 159.040 171.043 156.389 171.043 C 154.931 171.043,153.648 171.133,153.538 171.243 M213.853 171.543 C 213.743 171.653,213.653 172.177,213.653 172.708 C 213.653 173.421,213.497 173.714,213.053 173.830 C 212.202 174.053,212.173 176.144,213.021 176.144 C 213.538 176.144,213.598 176.447,213.697 179.565 C 213.834 183.886,215.135 185.500,218.106 185.033 C 219.962 184.741,221.001 182.146,219.262 182.146 C 217.791 182.146,217.520 181.601,217.616 178.839 L 217.704 176.294 218.830 176.201 C 220.879 176.031,220.367 173.743,218.280 173.743 C 217.633 173.743,217.554 173.613,217.554 172.543 L 217.554 171.343 215.804 171.343 C 214.841 171.343,213.963 171.433,213.853 171.543 M117.329 179.445 L 117.329 185.446 119.730 185.446 L 122.131 185.446 122.131 179.445 L 122.131 173.443 119.730 173.443 L 117.329 173.443 117.329 179.445 M122.731 179.453 L 122.731 185.446 125.281 185.446 L 127.832 185.446 127.832 181.824 C 127.832 177.517,128.217 176.645,129.507 178.036 C 130.183 178.765,130.233 179.043,130.233 182.132 L 130.233 185.446 132.783 185.446 L 135.334 185.446 135.334 180.795 C 135.334 177.894,135.221 176.144,135.034 176.144 C 134.869 176.144,134.734 175.892,134.734 175.585 C 134.734 175.277,134.381 174.673,133.950 174.242 L 133.167 173.459 127.949 173.459 L 122.731 173.459 122.731 179.453 M138.161 173.850 C 137.223 174.373,136.534 175.144,136.534 175.672 C 136.534 175.932,136.399 176.144,136.234 176.144 C 136.054 176.144,135.934 177.344,135.934 179.145 C 135.934 180.945,136.054 182.146,136.234 182.146 C 136.399 182.146,136.534 182.354,136.534 182.608 C 136.534 183.157,137.344 184.044,138.185 184.415 C 138.658 184.624,138.484 184.701,137.359 184.779 C 135.950 184.878,135.934 184.891,135.934 185.927 C 135.934 187.048,137.009 188.447,137.871 188.447 C 138.126 188.447,138.335 188.597,138.335 188.780 C 138.335 189.561,144.937 188.932,146.737 187.980 C 149.212 186.669,149.117 186.994,149.128 179.820 L 149.137 173.443 143.961 173.473 C 140.651 173.492,138.560 173.628,138.161 173.850 M177.944 173.743 C 177.944 173.908,177.732 174.044,177.471 174.044 C 174.386 174.044,174.458 182.062,177.560 183.991 C 180.550 185.850,186.947 184.305,186.947 181.724 C 186.947 181.206,183.413 181.574,182.896 182.146 C 181.939 183.203,179.807 182.729,179.164 181.317 C 178.646 180.182,178.965 180.072,183.051 179.980 L 186.797 179.895 186.895 179.038 C 187.092 177.315,185.840 175.300,184.141 174.605 C 183.621 174.393,183.017 174.044,182.799 173.831 C 182.322 173.364,177.944 173.285,177.944 173.743 M200.364 173.930 C 199.785 174.508,200.138 182.650,200.777 183.461 C 202.168 185.230,203.788 185.532,205.970 184.427 L 207.390 183.708 207.670 184.443 C 207.924 185.112,208.090 185.170,209.526 185.087 L 211.103 184.996 211.103 179.445 L 211.103 173.893 209.452 173.893 L 207.802 173.893 207.649 177.494 C 207.468 181.737,207.043 182.746,205.434 182.746 C 204.158 182.746,203.906 182.018,203.751 177.895 L 203.601 173.893 202.089 173.805 C 201.257 173.756,200.481 173.813,200.364 173.930 M221.272 174.172 C 220.829 175.327,221.303 182.584,221.877 183.435 C 223.024 185.136,225.103 185.527,227.241 184.444 L 228.628 183.742 228.718 184.369 C 228.797 184.926,229.010 184.996,230.608 184.996 L 232.408 184.996 232.408 179.445 L 232.408 173.893 230.608 173.893 L 228.807 173.893 228.657 177.644 C 228.470 182.328,227.896 183.329,225.956 182.356 C 225.224 181.988,225.203 181.881,225.056 177.936 L 224.906 173.893 223.177 173.803 C 221.844 173.734,221.408 173.818,221.272 174.172 M234.498 174.114 C 234.413 174.334,234.381 176.873,234.426 179.755 L 234.509 184.996 236.309 184.996 L 238.110 184.996 238.260 181.630 C 238.429 177.827,238.655 177.380,240.565 177.072 C 241.756 176.880,242.444 174.807,241.597 173.960 C 241.242 173.605,239.473 174.355,238.826 175.135 C 238.449 175.591,238.395 175.556,238.258 174.766 C 238.085 173.774,234.844 173.212,234.498 174.114 M246.484 174.473 C 241.744 176.629,242.206 183.275,247.200 184.771 C 248.703 185.221,251.055 185.264,251.313 184.846 C 251.415 184.681,251.823 184.546,252.221 184.546 C 253.100 184.546,255.138 182.604,255.003 181.894 C 254.846 181.069,251.607 181.016,251.171 181.831 C 250.684 182.740,248.378 182.705,247.729 181.779 C 246.618 180.192,246.909 180.045,251.163 180.045 L 255.064 180.045 255.064 178.689 C 255.064 174.860,250.530 172.633,246.484 174.473 M182.725 176.872 C 183.695 177.904,183.291 178.245,181.095 178.245 C 178.847 178.245,178.573 177.998,179.641 176.930 C 180.637 175.934,181.823 175.912,182.725 176.872 M250.788 176.818 C 251.805 177.631,251.214 178.245,249.412 178.245 C 247.425 178.245,247.156 178.103,247.592 177.288 C 248.163 176.222,249.751 175.988,250.788 176.818 M96.488 177.481 C 97.520 178.513,97.511 180.385,96.469 181.428 L 95.714 182.183 94.835 181.489 C 93.592 180.507,93.549 178.545,94.749 177.489 C 95.760 176.599,95.607 176.600,96.488 177.481 M110.291 177.481 C 111.315 178.504,111.315 180.385,110.291 181.409 C 108.468 183.232,106.618 179.407,108.402 177.502 C 109.259 176.587,109.396 176.586,110.291 177.481 M143.284 177.398 C 144.299 178.282,144.304 179.804,143.294 180.814 L 142.552 181.556 141.794 180.896 C 140.811 180.041,140.761 178.425,141.688 177.439 C 142.478 176.598,142.366 176.601,143.284 177.398 M144.036 184.410 C 144.036 185.356,142.108 186.262,141.464 185.618 C 140.811 184.965,140.931 184.846,142.236 184.846 C 142.896 184.846,143.436 184.711,143.436 184.546 C 143.436 184.381,143.571 184.246,143.736 184.246 C 143.901 184.246,144.036 184.320,144.036 184.410 " stroke="none" fill="#040404" fill-rule="evenodd"></path><path id="path1" d="M153.038 100.122 C 154.111 100.544,155.394 101.067,155.889 101.283 C 158.088 102.243,159.377 102.689,159.525 102.541 C 159.613 102.452,159.371 102.285,158.987 102.168 C 158.604 102.051,157.577 101.633,156.705 101.240 C 155.834 100.847,154.988 100.525,154.826 100.525 C 154.663 100.525,154.228 100.369,153.859 100.178 C 152.422 99.435,152.128 99.325,151.617 99.339 C 151.326 99.347,151.965 99.700,153.038 100.122 M160.105 102.875 C 160.556 103.270,163.619 104.448,163.780 104.287 C 163.859 104.208,163.602 104.020,163.207 103.870 C 162.813 103.720,161.968 103.379,161.329 103.111 C 160.036 102.571,159.679 102.502,160.105 102.875 M165.293 105.075 C 166.009 105.404,166.665 105.603,166.751 105.517 C 166.931 105.337,164.834 104.414,164.329 104.451 C 164.143 104.465,164.577 104.746,165.293 105.075 M168.606 106.412 C 169.494 106.818,170.270 107.099,170.331 107.038 C 170.392 106.977,170.071 106.754,169.617 106.542 C 169.163 106.330,168.558 106.037,168.271 105.891 C 167.985 105.746,167.579 105.637,167.371 105.651 C 167.162 105.665,167.718 106.007,168.606 106.412 M256.768 143.049 C 256.677 143.197,255.918 143.503,255.083 143.731 C 254.247 143.958,253.563 144.255,253.563 144.390 C 253.563 144.526,253.242 144.636,252.850 144.636 C 252.458 144.636,251.968 144.839,251.763 145.086 C 251.557 145.334,251.136 145.536,250.826 145.536 C 250.516 145.536,250.263 145.671,250.263 145.836 C 250.263 146.002,249.857 146.137,249.362 146.137 C 248.867 146.137,248.462 146.272,248.462 146.437 C 248.462 146.602,248.192 146.737,247.862 146.737 C 247.532 146.737,247.262 146.872,247.262 147.037 C 247.262 147.202,246.857 147.337,246.362 147.337 C 245.866 147.337,245.461 147.472,245.461 147.637 C 245.461 147.802,245.191 147.937,244.861 147.937 C 244.531 147.937,244.261 148.072,244.261 148.237 C 244.261 148.402,243.984 148.537,243.646 148.537 C 243.308 148.537,242.473 148.807,241.790 149.137 C 241.106 149.467,240.431 149.737,240.289 149.737 C 240.147 149.737,239.472 150.008,238.789 150.338 C 238.106 150.668,237.313 150.938,237.028 150.938 C 236.743 150.938,236.462 151.079,236.405 151.251 C 236.347 151.424,235.998 151.587,235.629 151.615 C 235.261 151.643,234.959 151.772,234.959 151.902 C 234.959 152.032,234.684 152.138,234.349 152.138 C 234.014 152.138,233.662 152.341,233.567 152.588 C 233.468 152.845,233.021 153.038,232.526 153.038 C 232.049 153.038,231.658 153.173,231.658 153.338 C 231.658 153.503,231.389 153.638,231.061 153.638 C 230.608 153.638,230.479 153.819,230.526 154.389 C 230.561 154.801,230.694 155.139,230.823 155.139 C 230.952 155.139,231.058 155.536,231.058 156.021 C 231.058 156.507,231.193 156.987,231.358 157.089 C 231.523 157.191,231.658 157.537,231.658 157.857 C 231.658 158.178,231.793 158.440,231.958 158.440 C 232.123 158.440,232.258 158.769,232.258 159.172 C 232.258 159.575,232.393 159.988,232.558 160.090 C 232.723 160.192,232.858 160.605,232.858 161.008 C 232.858 161.411,232.993 161.740,233.158 161.740 C 233.323 161.740,233.458 162.011,233.458 162.341 C 233.458 162.671,233.593 162.941,233.758 162.941 C 233.923 162.941,234.059 163.346,234.059 163.841 C 234.059 164.336,234.194 164.741,234.359 164.741 C 234.524 164.741,234.659 165.011,234.659 165.341 C 234.659 165.671,234.794 165.941,234.959 165.941 C 235.124 165.941,235.259 166.347,235.259 166.842 C 235.259 167.337,235.394 167.742,235.559 167.742 C 235.724 167.742,235.859 168.080,235.859 168.492 C 235.859 168.905,235.994 169.242,236.159 169.242 C 236.324 169.242,236.459 169.647,236.459 170.143 C 236.459 170.743,236.609 171.043,236.909 171.043 C 237.159 171.043,237.359 171.309,237.359 171.643 C 237.359 171.973,237.494 172.243,237.659 172.243 C 237.824 172.243,237.959 172.513,237.959 172.843 C 237.959 173.382,237.759 173.443,236.003 173.443 L 234.046 173.443 234.127 179.370 L 234.209 185.296 236.609 185.296 L 239.010 185.296 239.095 181.920 C 239.173 178.792,239.223 178.545,239.770 178.545 C 240.196 178.545,240.360 178.749,240.360 179.277 C 240.360 179.680,240.495 180.093,240.660 180.195 C 240.825 180.297,240.960 180.643,240.960 180.963 C 240.960 181.283,241.095 181.545,241.260 181.545 C 241.425 181.545,241.560 181.815,241.560 182.146 C 241.560 182.476,241.695 182.746,241.860 182.746 C 242.026 182.746,242.161 183.218,242.161 183.796 C 242.161 184.374,242.296 184.846,242.461 184.846 C 242.626 184.846,242.761 185.116,242.761 185.446 C 242.761 185.776,242.896 186.047,243.061 186.047 C 243.226 186.047,243.361 186.452,243.361 186.947 C 243.361 187.442,243.496 187.847,243.661 187.847 C 243.826 187.847,243.961 188.117,243.961 188.447 C 243.961 188.777,244.070 189.047,244.204 189.047 C 244.337 189.047,244.709 189.260,245.029 189.520 C 245.349 189.779,245.463 189.919,245.281 189.829 C 245.099 189.740,244.429 189.933,243.792 190.257 L 242.634 190.848 243.597 190.848 C 244.127 190.848,244.561 190.713,244.561 190.548 C 244.561 190.383,244.831 190.248,245.161 190.248 C 245.491 190.248,245.761 190.113,245.761 189.947 C 245.761 189.782,246.099 189.647,246.512 189.647 C 246.924 189.647,247.262 189.512,247.262 189.347 C 247.262 189.182,247.591 189.047,247.994 189.047 C 248.397 189.047,248.810 188.912,248.912 188.747 C 249.014 188.582,249.360 188.447,249.680 188.447 C 250.000 188.447,250.263 188.312,250.263 188.147 C 250.263 187.982,250.668 187.847,251.163 187.847 C 251.658 187.847,252.063 187.712,252.063 187.547 C 252.063 187.382,252.333 187.247,252.663 187.247 C 252.993 187.247,253.263 187.112,253.263 186.947 C 253.263 186.782,253.588 186.647,253.985 186.647 C 254.382 186.647,255.226 186.389,255.861 186.074 C 257.944 185.039,259.851 184.246,260.254 184.246 C 260.472 184.246,260.913 184.048,261.233 183.805 C 261.553 183.563,262.052 183.361,262.341 183.355 C 262.629 183.350,262.866 183.211,262.866 183.046 C 262.866 182.881,263.271 182.746,263.766 182.746 C 264.261 182.746,264.666 182.611,264.666 182.446 C 264.666 182.281,264.936 182.146,265.266 182.146 C 265.596 182.146,265.866 182.011,265.866 181.845 C 265.866 181.680,266.196 181.545,266.599 181.545 C 267.002 181.545,267.415 181.410,267.517 181.245 C 267.619 181.080,267.964 180.945,268.285 180.945 C 268.605 180.945,268.867 180.810,268.867 180.645 C 268.867 180.480,269.205 180.345,269.617 180.345 C 270.030 180.345,270.368 180.210,270.368 180.045 C 270.368 179.880,270.773 179.745,271.268 179.745 C 271.763 179.745,272.168 179.610,272.168 179.445 C 272.168 179.280,272.438 179.145,272.768 179.145 C 273.098 179.145,273.368 179.010,273.368 178.845 C 273.368 178.680,273.640 178.545,273.973 178.545 C 274.305 178.545,274.811 178.421,275.098 178.269 C 275.919 177.835,278.252 176.843,278.995 176.613 C 279.366 176.498,279.670 176.278,279.670 176.124 C 279.670 175.970,280.000 175.844,280.402 175.844 C 280.805 175.844,281.218 175.709,281.320 175.544 C 281.422 175.379,281.768 175.244,282.088 175.244 C 282.409 175.244,282.671 175.109,282.671 174.944 C 282.671 174.779,282.943 174.644,283.275 174.644 C 283.607 174.644,284.114 174.524,284.400 174.379 C 284.687 174.233,285.326 173.947,285.821 173.743 C 286.317 173.540,286.956 173.254,287.243 173.108 C 287.529 172.962,288.036 172.843,288.368 172.843 C 288.700 172.843,288.972 172.741,288.972 172.616 C 288.972 172.491,289.535 172.214,290.222 171.999 C 290.910 171.785,291.976 171.366,292.591 171.068 C 293.207 170.771,294.333 170.344,295.092 170.119 C 295.852 169.895,296.474 169.617,296.474 169.501 C 296.474 169.385,296.879 169.201,297.374 169.092 C 297.869 168.984,298.275 168.770,298.275 168.618 C 298.275 168.466,298.537 168.342,298.857 168.342 C 299.177 168.342,299.523 168.207,299.625 168.042 C 299.727 167.877,300.140 167.742,300.543 167.742 C 300.946 167.742,301.275 167.607,301.275 167.442 C 301.275 167.277,301.613 167.142,302.026 167.142 C 302.438 167.142,302.776 167.007,302.776 166.842 C 302.776 166.677,303.105 166.542,303.508 166.542 C 303.911 166.542,304.324 166.407,304.426 166.242 C 304.528 166.077,304.874 165.941,305.194 165.941 C 305.514 165.941,305.776 165.806,305.776 165.641 C 305.776 165.476,306.114 165.341,306.527 165.341 C 306.939 165.341,307.277 165.206,307.277 165.041 C 307.277 164.876,307.531 164.741,307.843 164.741 C 308.693 164.741,309.891 164.031,309.751 163.611 C 309.683 163.407,309.458 163.241,309.251 163.241 C 308.955 163.241,290.762 156.000,288.222 154.871 C 287.892 154.724,284.651 153.427,281.020 151.988 C 277.389 150.550,274.014 149.196,273.518 148.980 C 265.431 145.454,257.104 142.506,256.768 143.049 M228.532 154.731 C 228.383 155.120,228.429 155.152,228.753 154.884 C 228.978 154.697,229.251 154.633,229.360 154.741 C 229.469 154.850,229.557 154.781,229.557 154.589 C 229.557 154.058,228.748 154.170,228.532 154.731 M225.376 155.865 C 225.085 156.215,225.133 156.263,225.639 156.130 C 225.979 156.042,226.257 155.850,226.257 155.704 C 226.257 155.299,225.772 155.388,225.376 155.865 M213.938 161.392 C 210.852 164.699,208.144 165.916,203.151 166.241 L 200.000 166.446 203.358 166.494 C 205.327 166.522,206.793 166.418,206.902 166.242 C 207.004 166.077,207.345 165.941,207.661 165.941 C 209.485 165.941,212.093 164.117,215.086 160.746 C 216.691 158.940,215.713 159.489,213.938 161.392 M193.323 169.767 C 192.554 170.639,192.348 171.138,192.348 172.128 C 192.348 173.260,192.257 173.416,191.429 173.705 C 190.187 174.138,190.201 176.154,191.448 176.445 L 192.198 176.620 192.281 180.883 L 192.365 185.146 194.449 185.146 L 196.533 185.146 196.616 180.870 L 196.699 176.594 197.824 176.501 C 199.231 176.385,199.674 173.706,198.275 173.778 C 197.766 173.804,197.729 173.847,198.125 173.950 C 199.293 174.256,198.802 176.095,197.524 176.201 L 196.399 176.294 196.316 180.570 L 196.233 184.846 194.449 184.846 L 192.665 184.846 192.581 180.570 C 192.500 176.393,192.482 176.292,191.823 176.198 C 190.781 176.050,190.843 174.131,191.898 173.867 C 192.517 173.711,192.648 173.497,192.648 172.641 C 192.648 170.216,194.205 168.942,197.169 168.942 L 198.650 168.942 198.650 170.143 C 198.650 171.257,198.590 171.343,197.809 171.343 C 197.347 171.343,196.807 171.505,196.609 171.703 C 196.033 172.279,196.152 173.744,196.774 173.739 C 197.162 173.735,197.198 173.670,196.913 173.489 C 196.232 173.057,196.979 171.702,197.959 171.589 C 198.733 171.501,198.807 171.380,198.891 170.068 L 198.983 168.642 196.641 168.652 C 194.323 168.662,194.288 168.674,193.323 169.767 M213.553 171.243 C 213.443 171.353,213.353 171.879,213.353 172.411 C 213.353 173.636,212.945 173.793,210.380 173.555 C 207.111 173.251,206.923 173.456,207.159 177.063 C 207.446 181.431,206.318 183.566,204.663 181.789 C 204.116 181.202,204.051 180.741,204.051 177.438 C 204.051 175.406,203.950 173.743,203.826 173.743 C 203.260 173.741,203.884 181.883,204.483 182.321 C 206.478 183.776,207.444 182.303,207.649 177.494 L 207.802 173.893 209.452 173.893 L 211.103 173.893 211.103 179.520 C 211.103 182.615,211.204 185.147,211.328 185.146 C 211.452 185.146,211.553 183.179,211.553 180.775 L 211.553 176.404 212.378 176.499 L 213.203 176.594 213.369 179.895 C 213.611 184.708,215.786 186.598,219.446 185.176 C 220.759 184.666,220.567 181.778,219.205 181.544 L 218.305 181.389 218.305 178.992 L 218.305 176.594 219.280 176.500 C 221.132 176.322,220.615 173.443,218.730 173.443 C 218.321 173.443,218.155 173.233,218.155 172.718 C 218.155 171.205,217.923 171.043,215.772 171.043 C 214.662 171.043,213.663 171.133,213.553 171.243 M217.554 172.543 C 217.554 173.613,217.633 173.743,218.280 173.743 C 220.367 173.743,220.879 176.031,218.830 176.201 L 217.704 176.294 217.616 178.839 C 217.520 181.601,217.791 182.146,219.262 182.146 C 221.001 182.146,219.962 184.741,218.106 185.033 C 215.135 185.500,213.834 183.886,213.697 179.565 C 213.598 176.447,213.538 176.144,213.021 176.144 C 212.173 176.144,212.202 174.053,213.053 173.830 C 213.497 173.714,213.653 173.421,213.653 172.708 C 213.653 171.419,213.773 171.343,215.804 171.343 L 217.554 171.343 217.554 172.543 M182.596 173.653 C 182.926 173.963,183.621 174.390,184.141 174.604 C 185.841 175.301,187.092 177.316,186.895 179.038 L 186.797 179.895 183.051 179.980 C 178.965 180.072,178.646 180.182,179.164 181.317 C 179.807 182.729,181.939 183.203,182.896 182.146 C 183.413 181.574,186.947 181.206,186.947 181.724 C 186.947 184.305,180.550 185.850,177.560 183.991 C 175.755 182.868,175.132 181.314,175.323 178.404 C 175.412 177.031,175.378 176.317,175.242 176.744 C 173.696 181.610,176.286 185.146,181.395 185.146 C 184.722 185.146,186.594 184.139,187.107 182.071 L 187.312 181.245 185.245 181.245 C 183.522 181.245,183.106 181.345,182.746 181.845 C 182.187 182.620,180.940 182.615,180.102 181.834 C 178.742 180.567,179.144 180.370,183.267 180.279 C 187.569 180.185,187.480 180.243,187.110 177.780 C 186.870 176.177,185.584 174.756,183.496 173.787 C 182.224 173.196,182.087 173.176,182.596 173.653 M220.846 173.904 C 219.740 175.237,220.985 183.578,222.453 184.668 C 223.464 185.418,227.296 185.592,227.719 184.907 C 227.911 184.597,228.038 184.612,228.345 184.982 C 228.753 185.473,232.078 185.650,232.749 185.217 C 233.271 184.879,233.647 174.482,233.158 173.893 C 232.899 173.581,232.208 173.443,230.896 173.443 C 227.931 173.443,228.057 173.262,228.057 177.526 C 228.057 180.937,228.003 181.299,227.409 181.894 L 226.760 182.542 226.208 181.860 C 225.739 181.281,225.656 180.624,225.656 177.493 C 225.656 173.288,225.760 173.443,222.968 173.443 C 221.770 173.443,221.110 173.587,220.846 173.904 M199.850 178.403 L 199.850 183.062 200.798 184.104 C 201.320 184.677,202.029 185.146,202.374 185.145 C 202.897 185.144,202.842 185.047,202.042 184.559 C 200.246 183.464,200.109 182.983,200.209 178.123 C 200.259 175.714,200.199 173.743,200.075 173.743 C 199.951 173.743,199.850 175.840,199.850 178.403 M225.056 177.936 C 225.203 181.881,225.224 181.988,225.956 182.356 C 227.896 183.329,228.470 182.328,228.657 177.644 L 228.807 173.893 230.608 173.893 L 232.408 173.893 232.408 179.445 L 232.408 184.996 230.608 184.996 C 229.010 184.996,228.797 184.926,228.718 184.369 L 228.628 183.742 227.241 184.444 C 223.288 186.446,221.365 184.589,221.203 178.613 C 221.068 173.570,221.018 173.691,223.177 173.803 L 224.906 173.893 225.056 177.936 M238.258 174.766 C 238.395 175.556,238.449 175.591,238.826 175.135 C 239.473 174.355,241.242 173.605,241.597 173.960 C 242.444 174.807,241.756 176.880,240.565 177.072 C 238.655 177.380,238.429 177.827,238.260 181.630 L 238.110 184.996 236.309 184.996 L 234.509 184.996 234.426 179.755 C 234.326 173.356,234.216 173.691,236.379 173.803 C 238.024 173.889,238.113 173.935,238.258 174.766 M251.915 174.370 C 254.000 175.150,255.064 176.609,255.064 178.689 L 255.064 180.045 251.163 180.045 C 246.909 180.045,246.618 180.192,247.729 181.779 C 248.378 182.705,250.684 182.740,251.171 181.831 C 251.607 181.016,254.846 181.069,255.003 181.894 C 255.138 182.604,253.100 184.546,252.221 184.546 C 251.823 184.546,251.415 184.681,251.313 184.846 C 250.700 185.838,246.425 184.847,244.837 183.346 C 240.111 178.876,245.544 171.986,251.915 174.370 M179.641 176.930 C 178.573 177.998,178.847 178.245,181.095 178.245 C 183.291 178.245,183.695 177.904,182.725 176.872 C 181.823 175.912,180.637 175.934,179.641 176.930 M248.557 176.449 C 247.849 176.731,247.164 177.746,247.472 178.055 C 247.985 178.568,251.163 178.246,251.163 177.681 C 251.163 176.672,249.714 175.988,248.557 176.449 M182.459 177.119 L 183.187 177.794 181.432 177.885 C 179.351 177.993,179.044 177.803,180.049 177.030 C 181.027 176.279,181.576 176.299,182.459 177.119 M173.343 177.544 C 173.233 177.654,173.143 179.342,173.143 181.295 L 173.143 184.846 171.354 184.846 L 169.565 184.846 169.466 182.071 L 169.367 179.295 169.305 182.221 L 169.242 185.146 171.326 185.146 L 173.409 185.146 173.501 181.320 C 173.604 177.037,173.614 177.273,173.343 177.544 M166.263 179.935 C 165.771 180.561,165.641 181.156,165.641 182.786 L 165.641 184.846 163.858 184.846 L 162.075 184.846 161.960 183.571 L 161.845 182.296 161.793 183.721 L 161.740 185.146 163.809 185.146 L 165.878 185.146 165.986 182.776 C 166.067 180.974,166.230 180.255,166.664 179.776 C 166.978 179.429,167.156 179.145,167.060 179.145 C 166.964 179.145,166.605 179.501,166.263 179.935 M160.585 183.234 C 160.517 184.662,159.940 184.958,157.607 184.762 C 156.383 184.660,155.825 184.694,156.189 184.849 C 158.585 185.869,161.032 184.934,160.754 183.106 C 160.637 182.341,160.628 182.348,160.585 183.234 M205.863 184.457 C 204.858 184.974,204.692 185.146,205.198 185.146 C 205.569 185.146,206.205 184.928,206.612 184.662 C 207.293 184.216,207.352 184.216,207.352 184.662 C 207.352 184.928,207.474 185.146,207.624 185.146 C 207.915 185.146,207.707 183.994,207.391 183.852 C 207.287 183.806,206.599 184.078,205.863 184.457 M242.042 191.199 C 242.186 191.431,242.098 191.488,241.784 191.368 C 241.519 191.266,241.012 191.442,240.639 191.767 C 239.832 192.467,240.200 192.510,241.686 191.889 C 242.662 191.481,242.929 190.848,242.125 190.848 C 241.960 190.848,241.923 191.006,242.042 191.199 M239.027 192.523 C 238.540 192.879,238.525 192.948,238.935 192.948 C 239.204 192.948,239.513 192.804,239.622 192.628 C 239.940 192.114,239.655 192.063,239.027 192.523 M221.605 199.710 C 220.851 200.074,220.827 200.115,221.455 199.963 C 221.868 199.864,222.334 199.663,222.491 199.516 C 222.880 199.153,222.666 199.200,221.605 199.710 " stroke="none" fill="#047a06" fill-rule="evenodd"></path><path id="path2" d="M309.607 142.866 C 309.546 158.593,309.612 163.443,309.893 163.811 C 310.181 164.190,310.260 159.914,310.268 143.529 C 310.274 130.193,310.172 122.701,309.982 122.583 C 309.788 122.464,309.658 129.509,309.607 142.866 M262.394 144.496 C 264.198 145.230,265.722 145.781,265.782 145.721 C 265.916 145.587,259.831 143.127,259.415 143.148 C 259.250 143.156,260.590 143.762,262.394 144.496 M267.336 146.464 C 268.061 146.786,268.708 146.996,268.773 146.931 C 268.903 146.801,266.591 145.823,266.235 145.858 C 266.115 145.869,266.610 146.142,267.336 146.464 M279.820 151.526 C 282.166 152.502,283.675 153.040,283.421 152.810 C 283.027 152.454,279.986 151.232,279.555 151.257 C 279.371 151.267,279.490 151.388,279.820 151.526 M285.497 153.801 C 286.474 154.207,287.420 154.533,287.598 154.526 C 287.776 154.519,287.123 154.181,286.146 153.776 C 285.169 153.370,284.223 153.044,284.045 153.051 C 283.867 153.058,284.520 153.396,285.497 153.801 M229.557 154.534 C 229.557 154.721,229.432 154.796,229.278 154.701 C 229.124 154.607,228.925 154.648,228.835 154.794 C 228.745 154.939,228.297 154.998,227.839 154.925 C 227.189 154.821,227.106 154.862,227.457 155.111 C 227.821 155.369,227.755 155.431,227.107 155.434 C 226.667 155.437,226.262 155.566,226.207 155.721 C 226.113 155.985,225.508 156.170,223.484 156.551 C 223.032 156.637,222.736 156.826,222.826 156.973 C 222.917 157.119,222.711 157.239,222.369 157.239 C 222.027 157.239,221.513 157.363,221.226 157.515 C 219.694 158.325,217.640 159.133,217.179 159.107 C 216.890 159.091,216.654 159.212,216.654 159.376 C 216.654 159.541,216.553 159.615,216.429 159.540 C 216.305 159.466,215.731 159.961,215.154 160.640 C 212.347 163.941,209.520 165.941,207.661 165.941 C 207.345 165.941,207.004 166.077,206.902 166.242 C 206.793 166.418,205.045 166.542,202.672 166.542 C 199.455 166.542,198.477 166.641,197.889 167.026 C 197.482 167.293,197.145 167.394,197.140 167.251 C 197.134 167.109,196.966 167.206,196.765 167.467 C 196.564 167.729,195.994 168.065,195.499 168.216 C 194.737 168.447,194.935 168.503,196.790 168.579 L 198.982 168.669 198.891 170.081 C 198.807 171.379,198.732 171.501,197.959 171.589 C 196.137 171.798,196.285 173.729,198.125 173.739 C 199.642 173.747,199.357 176.374,197.824 176.501 L 196.699 176.594 196.616 180.870 L 196.533 185.146 194.449 185.146 L 192.365 185.146 192.281 180.883 L 192.198 176.620 191.448 176.445 C 190.201 176.154,190.187 174.138,191.429 173.705 C 192.258 173.416,192.348 173.261,192.348 172.120 C 192.348 171.261,192.545 170.645,192.962 170.197 C 193.429 169.695,193.503 169.413,193.271 169.015 C 193.104 168.727,192.962 168.628,192.957 168.794 C 192.945 169.215,191.121 169.992,190.412 169.878 C 189.903 169.796,189.879 169.848,190.229 170.270 C 190.577 170.690,190.563 170.730,190.126 170.562 C 189.811 170.441,189.444 170.581,189.158 170.930 C 188.751 171.429,188.717 171.433,188.863 170.968 C 188.954 170.679,188.898 170.443,188.738 170.443 C 188.578 170.443,188.447 170.578,188.447 170.743 C 188.447 170.908,188.177 171.043,187.847 171.043 C 187.517 171.043,187.247 171.170,187.247 171.326 C 187.247 171.481,187.520 171.556,187.855 171.491 C 188.189 171.427,188.390 171.493,188.300 171.638 C 187.913 172.265,188.818 172.224,189.350 171.591 L 189.936 170.893 189.754 171.868 C 189.637 172.498,189.692 172.843,189.910 172.843 C 190.125 172.843,190.248 173.549,190.248 174.794 C 190.248 176.668,190.276 176.744,190.990 176.744 L 191.731 176.744 191.815 181.020 L 191.898 185.296 193.623 185.386 C 195.314 185.474,195.349 185.494,195.349 186.362 C 195.349 186.848,195.484 187.247,195.649 187.247 C 195.814 187.247,195.949 187.517,195.949 187.847 C 195.949 188.177,196.084 188.447,196.249 188.447 C 196.414 188.447,196.549 188.852,196.549 189.347 C 196.549 189.842,196.684 190.248,196.849 190.248 C 197.014 190.248,197.149 190.585,197.149 190.998 C 197.149 191.410,197.284 191.748,197.449 191.748 C 197.614 191.748,197.749 192.018,197.749 192.348 C 197.749 192.678,197.884 192.948,198.050 192.948 C 198.215 192.948,198.350 193.353,198.350 193.848 C 198.350 194.449,198.500 194.749,198.800 194.749 C 199.050 194.749,199.250 195.015,199.250 195.349 C 199.250 195.679,199.385 195.949,199.550 195.949 C 199.715 195.949,199.850 196.354,199.850 196.849 C 199.850 197.344,199.985 197.749,200.150 197.749 C 200.315 197.749,200.450 198.087,200.450 198.500 C 200.450 198.912,200.585 199.250,200.750 199.250 C 200.915 199.250,201.050 199.655,201.050 200.150 C 201.050 200.645,201.185 201.050,201.350 201.050 C 201.515 201.050,201.650 201.320,201.650 201.650 C 201.650 201.980,201.785 202.251,201.950 202.251 C 202.116 202.251,202.251 202.656,202.251 203.151 C 202.251 203.646,202.386 204.051,202.551 204.051 C 202.716 204.051,202.851 204.307,202.851 204.619 C 202.851 204.931,203.053 205.265,203.301 205.360 C 204.010 205.632,203.872 206.553,203.151 206.365 C 202.658 206.236,202.555 206.351,202.574 207.005 C 202.587 207.443,202.666 207.633,202.749 207.427 C 202.833 207.221,203.092 207.052,203.326 207.052 C 203.560 207.052,203.751 206.902,203.751 206.720 C 203.751 206.537,203.937 206.459,204.164 206.546 C 204.391 206.633,204.946 206.512,205.398 206.278 C 205.850 206.043,206.407 205.851,206.636 205.851 C 206.865 205.851,207.052 205.716,207.052 205.551 C 207.052 205.386,207.449 205.251,207.934 205.251 C 208.420 205.251,208.900 205.116,209.002 204.951 C 209.104 204.786,209.450 204.651,209.770 204.651 C 210.090 204.651,210.353 204.516,210.353 204.351 C 210.353 204.186,210.557 204.051,210.807 204.051 C 211.057 204.051,211.529 203.916,211.857 203.751 C 212.185 203.586,212.721 203.316,213.049 203.151 C 213.377 202.986,213.917 202.851,214.249 202.851 C 214.582 202.851,214.854 202.716,214.854 202.551 C 214.854 202.386,215.191 202.251,215.604 202.251 C 216.017 202.251,216.354 202.116,216.354 201.950 C 216.354 201.785,216.620 201.650,216.945 201.650 C 217.270 201.650,218.017 201.380,218.605 201.050 C 219.192 200.720,219.939 200.450,220.264 200.450 C 220.589 200.450,220.855 200.336,220.855 200.196 C 220.855 199.879,223.255 198.914,223.566 199.106 C 223.691 199.183,223.871 199.045,223.965 198.798 C 224.060 198.551,224.471 198.350,224.879 198.350 C 225.287 198.350,225.704 198.215,225.806 198.050 C 225.908 197.884,226.254 197.749,226.574 197.749 C 226.895 197.749,227.157 197.639,227.157 197.504 C 227.157 197.368,227.832 197.074,228.657 196.849 C 229.482 196.625,230.158 196.330,230.158 196.195 C 230.158 196.060,230.495 195.949,230.908 195.949 C 231.320 195.949,231.658 195.814,231.658 195.649 C 231.658 195.484,231.995 195.349,232.408 195.349 C 232.821 195.349,233.158 195.214,233.158 195.049 C 233.158 194.884,233.401 194.749,233.698 194.749 C 233.995 194.749,234.373 194.614,234.537 194.450 C 234.701 194.286,235.201 194.122,235.647 194.085 C 236.094 194.048,236.459 193.928,236.459 193.818 C 236.459 193.708,236.763 193.520,237.134 193.399 C 237.506 193.278,237.877 193.156,237.959 193.128 C 238.042 193.100,238.447 192.886,238.860 192.652 C 239.272 192.418,239.776 192.199,239.979 192.165 C 240.182 192.131,240.557 191.894,240.813 191.638 C 241.070 191.381,241.497 191.258,241.768 191.362 C 242.125 191.498,242.191 191.440,242.011 191.148 C 241.829 190.854,241.896 190.797,242.261 190.937 C 242.536 191.043,242.761 191.028,242.761 190.904 C 242.761 190.614,244.574 189.835,245.161 189.874 C 245.489 189.895,245.453 189.787,245.029 189.475 C 244.709 189.240,244.337 189.047,244.204 189.047 C 244.070 189.047,243.961 188.777,243.961 188.447 C 243.961 188.117,243.826 187.847,243.661 187.847 C 243.496 187.847,243.361 187.442,243.361 186.947 C 243.361 186.452,243.226 186.047,243.061 186.047 C 242.896 186.047,242.761 185.776,242.761 185.446 C 242.761 185.116,242.626 184.846,242.461 184.846 C 242.296 184.846,242.161 184.374,242.161 183.796 C 242.161 183.218,242.026 182.746,241.860 182.746 C 241.695 182.746,241.560 182.476,241.560 182.146 C 241.560 181.815,241.425 181.545,241.260 181.545 C 241.095 181.545,240.960 181.283,240.960 180.963 C 240.960 180.643,240.825 180.297,240.660 180.195 C 240.495 180.093,240.360 179.680,240.360 179.277 C 240.360 178.749,240.196 178.545,239.770 178.545 C 239.223 178.545,239.173 178.792,239.095 181.920 L 239.010 185.296 236.609 185.296 L 234.209 185.296 234.127 179.370 L 234.046 173.443 236.003 173.443 C 237.759 173.443,237.959 173.382,237.959 172.843 C 237.959 172.513,237.824 172.243,237.659 172.243 C 237.494 172.243,237.359 171.973,237.359 171.643 C 237.359 171.309,237.159 171.043,236.909 171.043 C 236.609 171.043,236.459 170.743,236.459 170.143 C 236.459 169.647,236.324 169.242,236.159 169.242 C 235.994 169.242,235.859 168.905,235.859 168.492 C 235.859 168.080,235.724 167.742,235.559 167.742 C 235.394 167.742,235.259 167.337,235.259 166.842 C 235.259 166.347,235.124 165.941,234.959 165.941 C 234.794 165.941,234.659 165.671,234.659 165.341 C 234.659 165.011,234.524 164.741,234.359 164.741 C 234.194 164.741,234.059 164.336,234.059 163.841 C 234.059 163.346,233.923 162.941,233.758 162.941 C 233.593 162.941,233.458 162.671,233.458 162.341 C 233.458 162.011,233.323 161.740,233.158 161.740 C 232.993 161.740,232.858 161.411,232.858 161.008 C 232.858 160.605,232.723 160.192,232.558 160.090 C 232.393 159.988,232.258 159.575,232.258 159.172 C 232.258 158.769,232.123 158.440,231.958 158.440 C 231.793 158.440,231.658 158.178,231.658 157.857 C 231.658 157.537,231.523 157.191,231.358 157.089 C 231.193 156.987,231.058 156.507,231.058 156.021 C 231.058 155.536,230.923 155.139,230.758 155.139 C 230.593 155.139,230.491 154.978,230.533 154.782 C 230.574 154.585,230.371 154.373,230.083 154.309 C 229.794 154.246,229.557 154.347,229.557 154.534 M298.315 158.880 C 298.567 159.132,300.675 159.952,300.675 159.798 C 300.675 159.715,300.186 159.444,299.588 159.194 C 298.481 158.731,298.063 158.628,298.315 158.880 M304.101 161.303 C 305.078 161.708,305.925 161.992,305.984 161.933 C 306.123 161.794,303.097 160.536,302.661 160.553 C 302.476 160.560,303.125 160.897,304.101 161.303 M217.972 171.517 C 218.073 171.778,218.155 172.319,218.155 172.718 C 218.155 173.233,218.321 173.443,218.730 173.443 C 220.615 173.443,221.132 176.322,219.280 176.500 L 218.305 176.594 218.305 178.992 L 218.305 181.389 219.205 181.544 C 220.567 181.778,220.759 184.666,219.446 185.176 C 215.786 186.598,213.611 184.708,213.369 179.895 L 213.203 176.594 212.378 176.499 L 211.553 176.404 211.553 180.775 L 211.553 185.146 209.452 185.146 C 207.719 185.146,207.352 185.062,207.352 184.662 C 207.352 184.216,207.293 184.216,206.612 184.662 C 205.123 185.638,201.914 185.330,200.798 184.104 L 199.850 183.062 199.850 178.403 L 199.850 173.743 201.950 173.743 L 204.051 173.743 204.051 177.438 C 204.051 180.741,204.116 181.202,204.663 181.789 C 206.318 183.566,207.446 181.431,207.159 177.063 C 206.923 173.456,207.111 173.251,210.380 173.555 C 212.945 173.793,213.353 173.636,213.353 172.411 C 213.353 171.101,213.457 171.043,215.772 171.043 C 217.336 171.043,217.831 171.150,217.972 171.517 M182.719 173.261 C 182.910 173.491,183.500 173.852,184.031 174.063 C 186.183 174.920,187.698 177.686,187.155 179.764 C 187.053 180.155,187.122 180.337,187.345 180.264 C 188.038 180.036,187.733 176.835,186.952 176.144 C 186.859 176.062,186.557 175.639,186.282 175.206 C 186.006 174.772,185.166 174.164,184.414 173.855 C 183.663 173.546,183.048 173.192,183.047 173.068 C 183.046 172.944,182.894 172.843,182.709 172.843 C 182.465 172.843,182.467 172.958,182.719 173.261 M225.182 173.626 C 225.579 173.778,225.656 174.409,225.656 177.493 C 225.656 180.624,225.739 181.281,226.208 181.860 L 226.760 182.542 227.409 181.894 C 228.003 181.299,228.057 180.937,228.057 177.526 C 228.057 173.262,227.931 173.443,230.896 173.443 C 232.208 173.443,232.899 173.581,233.158 173.893 C 233.647 174.482,233.271 184.879,232.749 185.217 C 232.078 185.650,228.753 185.473,228.345 184.982 C 228.038 184.612,227.911 184.597,227.719 184.907 C 227.296 185.592,223.464 185.418,222.453 184.668 C 220.985 183.578,219.740 175.237,220.846 173.904 C 221.237 173.433,224.186 173.243,225.182 173.626 M180.120 176.947 C 179.749 177.206,179.445 177.541,179.445 177.693 C 179.445 177.844,179.740 177.693,180.102 177.356 C 180.926 176.588,181.267 176.589,182.255 177.366 C 183.212 178.119,183.303 177.908,182.389 177.056 C 181.613 176.333,181.039 176.305,180.120 176.947 M173.673 177.644 C 173.318 178.849,173.389 185.321,173.753 184.957 C 173.943 184.767,174.030 183.148,173.978 180.771 C 173.928 178.495,173.802 177.204,173.673 177.644 M174.742 179.595 C 174.743 180.750,174.798 181.186,174.863 180.563 C 174.928 179.941,174.927 178.996,174.860 178.463 C 174.794 177.930,174.741 178.440,174.742 179.595 M166.134 180.708 C 166.033 181.086,165.969 182.273,165.992 183.346 C 166.034 185.296,166.034 185.296,166.240 182.746 C 166.457 180.048,166.433 179.589,166.134 180.708 M179.449 180.708 C 179.437 182.132,181.921 182.989,182.746 181.845 C 183.106 181.345,183.522 181.245,185.245 181.245 L 187.312 181.245 187.108 182.071 C 186.996 182.524,186.542 183.296,186.100 183.784 C 185.614 184.322,185.533 184.500,185.895 184.235 C 186.913 183.489,187.247 183.105,187.247 182.677 C 187.247 182.451,187.414 182.098,187.619 181.893 C 188.728 180.784,183.712 180.497,182.536 181.602 C 181.676 182.409,180.418 182.102,179.831 180.940 C 179.563 180.411,179.452 180.344,179.449 180.708 M175.239 182.423 C 175.655 183.215,177.019 184.675,177.183 184.503 C 177.239 184.444,176.738 183.788,176.071 183.046 C 175.404 182.303,175.029 182.023,175.239 182.423 M184.396 184.846 C 184.294 185.011,182.970 185.174,181.453 185.208 L 178.695 185.270 181.328 185.370 C 183.337 185.446,184.117 185.361,184.620 185.008 C 184.983 184.754,185.123 184.546,184.931 184.546 C 184.739 184.546,184.498 184.681,184.396 184.846 M157.768 185.359 C 158.141 185.430,158.681 185.428,158.968 185.352 C 159.255 185.277,158.950 185.219,158.290 185.222 C 157.629 185.225,157.395 185.287,157.768 185.359 M162.866 185.363 C 163.402 185.430,164.280 185.430,164.816 185.363 C 165.353 185.297,164.914 185.242,163.841 185.242 C 162.768 185.242,162.329 185.297,162.866 185.363 M170.368 185.363 C 170.904 185.430,171.782 185.430,172.318 185.363 C 172.854 185.297,172.416 185.242,171.343 185.242 C 170.270 185.242,169.831 185.297,170.368 185.363 M199.259 208.540 C 199.016 208.694,198.908 208.911,199.019 209.022 C 199.130 209.133,199.440 209.005,199.707 208.738 C 200.235 208.210,199.967 208.092,199.259 208.540 " stroke="none" fill="#04a004" fill-rule="evenodd"></path><path id="path3" d="M128.505 69.692 L 128.582 90.773 129.262 90.869 C 129.636 90.922,129.864 91.091,129.769 91.244 C 129.674 91.398,130.078 91.523,130.665 91.523 C 131.252 91.523,131.733 91.658,131.733 91.823 C 131.733 91.988,132.003 92.123,132.333 92.123 C 132.663 92.123,132.933 92.258,132.933 92.423 C 132.933 92.588,133.338 92.723,133.833 92.723 C 134.329 92.723,134.734 92.858,134.734 93.023 C 134.734 93.188,135.008 93.323,135.343 93.323 C 135.679 93.323,136.019 93.497,136.101 93.709 C 136.182 93.920,136.603 94.123,137.036 94.159 C 137.469 94.195,138.006 94.376,138.229 94.561 C 138.452 94.746,138.635 94.792,138.635 94.664 C 138.635 94.536,138.871 94.620,139.160 94.852 C 140.064 95.578,141.004 96.024,141.631 96.024 C 141.964 96.024,142.236 96.159,142.236 96.324 C 142.236 96.489,142.649 96.624,143.153 96.624 C 143.689 96.624,143.994 96.749,143.886 96.924 C 143.777 97.100,144.089 97.224,144.636 97.224 C 145.184 97.224,145.495 97.349,145.386 97.524 C 145.281 97.695,145.533 97.824,145.969 97.824 C 146.391 97.824,146.739 97.993,146.741 98.200 C 146.744 98.450,146.843 98.425,147.037 98.125 C 147.231 97.824,147.329 97.799,147.332 98.050 C 147.335 98.256,147.599 98.425,147.919 98.425 C 148.240 98.425,148.585 98.560,148.687 98.725 C 148.789 98.890,149.620 99.025,150.534 99.025 C 151.491 99.025,152.597 99.234,153.142 99.518 C 154.916 100.442,155.131 100.525,155.735 100.525 C 156.067 100.525,156.339 100.660,156.339 100.825 C 156.339 100.990,156.601 101.125,156.922 101.125 C 157.242 101.125,157.587 101.260,157.689 101.425 C 157.791 101.590,158.197 101.725,158.590 101.725 C 158.983 101.725,159.388 101.860,159.490 102.026 C 159.592 102.191,159.937 102.326,160.258 102.326 C 160.578 102.326,160.840 102.461,160.840 102.626 C 160.840 102.791,161.112 102.926,161.444 102.926 C 161.777 102.926,162.283 103.050,162.570 103.201 C 163.340 103.608,165.912 104.726,166.079 104.726 C 166.159 104.726,166.962 105.064,167.864 105.476 C 168.766 105.889,169.614 106.227,169.748 106.227 C 170.146 106.228,171.643 107.618,171.643 107.987 C 171.643 108.174,172.034 108.327,172.511 108.327 C 173.008 108.327,173.453 108.521,173.553 108.780 C 173.649 109.029,173.832 109.210,173.960 109.182 C 174.089 109.154,174.801 109.420,175.544 109.773 C 176.287 110.126,177.131 110.417,177.419 110.421 C 177.708 110.425,177.944 110.571,177.944 110.745 C 177.944 110.920,178.069 110.986,178.220 110.893 C 178.372 110.799,178.700 110.926,178.949 111.175 C 179.198 111.424,179.749 111.628,180.174 111.628 C 180.598 111.628,180.945 111.763,180.945 111.928 C 180.945 112.093,181.291 112.228,181.713 112.228 C 182.149 112.228,182.401 112.358,182.296 112.528 C 182.185 112.707,182.543 112.828,183.178 112.828 C 183.765 112.828,184.246 112.963,184.246 113.128 C 184.246 113.293,184.516 113.428,184.846 113.428 C 185.176 113.428,185.446 113.563,185.446 113.728 C 185.446 113.893,185.784 114.029,186.197 114.029 C 186.609 114.029,186.947 114.164,186.947 114.329 C 186.947 114.494,187.284 114.629,187.697 114.629 C 188.110 114.629,188.447 114.764,188.447 114.929 C 188.447 115.094,188.785 115.229,189.197 115.229 C 189.610 115.229,189.947 115.364,189.947 115.529 C 189.947 115.694,190.353 115.829,190.848 115.829 C 191.343 115.829,191.748 115.958,191.748 116.117 C 191.748 116.275,192.423 116.644,193.248 116.937 C 194.074 117.230,194.749 117.574,194.749 117.700 C 194.749 117.826,195.019 117.929,195.349 117.929 C 195.679 117.929,195.949 118.031,195.949 118.155 C 195.949 118.278,196.317 118.401,196.765 118.427 C 197.214 118.453,197.630 118.622,197.690 118.802 C 197.750 118.982,198.052 119.130,198.360 119.130 C 198.669 119.130,199.299 119.282,199.761 119.467 C 200.222 119.653,200.938 119.939,201.350 120.102 C 201.763 120.266,202.335 120.519,202.622 120.665 C 202.908 120.811,203.347 120.930,203.597 120.930 C 203.847 120.930,204.051 121.065,204.051 121.230 C 204.051 121.395,204.397 121.530,204.819 121.530 C 205.254 121.530,205.507 121.660,205.401 121.830 C 205.291 122.009,205.648 122.131,206.284 122.131 C 206.871 122.131,207.352 122.266,207.352 122.431 C 207.352 122.596,207.556 122.731,207.806 122.731 C 208.238 122.731,209.431 123.292,209.752 123.646 C 209.835 123.737,210.542 124.052,211.325 124.345 C 212.107 124.638,212.824 125.003,212.918 125.155 C 213.012 125.307,213.486 125.431,213.971 125.431 C 214.457 125.431,214.854 125.566,214.854 125.731 C 214.854 125.896,215.267 126.032,215.772 126.032 C 216.307 126.032,216.612 126.157,216.504 126.332 C 216.399 126.501,216.645 126.632,217.069 126.632 C 217.481 126.632,217.903 126.767,218.005 126.932 C 218.107 127.097,218.460 127.232,218.790 127.232 C 219.120 127.232,219.307 127.367,219.205 127.532 C 219.094 127.711,219.458 127.832,220.105 127.832 C 220.752 127.832,221.116 127.953,221.005 128.132 C 220.900 128.302,221.152 128.432,221.588 128.432 C 222.010 128.432,222.356 128.567,222.356 128.732 C 222.356 128.897,222.689 129.032,223.097 129.032 C 223.504 129.032,224.319 129.302,224.906 129.632 C 225.494 129.962,226.233 130.233,226.548 130.233 C 226.863 130.233,227.205 130.368,227.307 130.533 C 227.409 130.698,227.759 130.833,228.084 130.833 C 228.410 130.833,228.757 131.043,228.855 131.300 C 228.954 131.557,229.216 131.698,229.437 131.613 C 229.659 131.528,230.037 131.655,230.277 131.896 C 230.518 132.136,230.861 132.333,231.040 132.333 C 231.219 132.333,231.634 132.468,231.962 132.633 C 232.290 132.798,232.826 133.068,233.154 133.233 C 233.482 133.398,233.955 133.533,234.204 133.533 C 234.454 133.533,234.659 133.668,234.659 133.833 C 234.659 133.998,234.988 134.134,235.391 134.134 C 235.794 134.134,236.207 134.269,236.309 134.434 C 236.411 134.599,236.824 134.734,237.227 134.734 C 237.630 134.734,237.959 134.869,237.959 135.034 C 237.959 135.199,238.305 135.334,238.727 135.334 C 239.150 135.334,239.430 135.440,239.349 135.570 C 239.269 135.700,239.565 135.836,240.007 135.873 C 240.449 135.909,240.855 136.073,240.910 136.237 C 240.965 136.400,241.269 136.534,241.585 136.534 C 241.902 136.534,242.161 136.669,242.161 136.834 C 242.161 136.999,242.633 137.134,243.211 137.134 C 243.788 137.134,244.261 137.269,244.261 137.434 C 244.261 137.599,244.523 137.734,244.844 137.734 C 245.164 137.734,245.509 137.869,245.611 138.035 C 245.713 138.200,246.126 138.335,246.529 138.335 C 246.932 138.335,247.262 138.508,247.262 138.721 C 247.262 138.933,247.553 139.129,247.910 139.156 C 248.266 139.183,248.638 139.313,248.735 139.445 C 248.833 139.577,249.182 139.732,249.512 139.790 C 249.842 139.848,250.180 139.983,250.263 140.092 C 250.473 140.367,252.453 141.035,253.060 141.035 C 253.337 141.035,253.563 141.170,253.563 141.335 C 253.563 141.500,253.833 141.635,254.164 141.635 C 254.494 141.635,254.764 141.770,254.764 141.935 C 254.764 142.101,255.203 142.238,255.739 142.240 C 256.479 142.244,256.606 142.315,256.264 142.536 C 255.948 142.740,256.394 142.828,257.764 142.833 C 258.899 142.837,260.075 143.027,260.574 143.288 C 261.047 143.534,261.560 143.736,261.714 143.736 C 261.868 143.736,262.553 144.006,263.237 144.336 C 263.920 144.666,264.724 144.936,265.023 144.936 C 265.322 144.936,265.566 145.071,265.566 145.236 C 265.566 145.401,265.771 145.536,266.021 145.536 C 266.270 145.536,266.709 145.656,266.996 145.801 C 267.652 146.135,268.646 146.543,270.368 147.184 C 271.110 147.460,272.123 147.860,272.618 148.073 C 273.113 148.286,274.801 148.969,276.369 149.591 C 277.937 150.213,279.348 150.837,279.505 150.980 C 279.662 151.122,279.967 151.238,280.183 151.238 C 280.400 151.238,281.217 151.521,281.999 151.868 C 283.511 152.538,284.459 152.937,285.671 153.413 C 286.084 153.576,286.656 153.828,286.943 153.973 C 287.229 154.119,287.602 154.239,287.771 154.239 C 287.940 154.239,288.651 154.494,289.351 154.807 C 290.050 155.119,291.905 155.880,293.473 156.496 C 295.041 157.113,296.932 157.883,297.674 158.208 C 299.217 158.883,300.231 159.307,301.200 159.680 C 301.572 159.823,302.179 160.057,302.551 160.200 C 303.589 160.600,304.637 161.022,305.626 161.440 C 306.122 161.650,306.864 161.953,307.277 162.116 C 307.689 162.278,308.261 162.530,308.548 162.676 C 308.835 162.821,309.138 162.941,309.223 162.941 C 309.308 162.941,309.377 153.616,309.377 142.220 L 309.377 121.499 308.477 121.185 C 307.982 121.013,307.577 120.750,307.577 120.601 C 307.577 120.452,307.172 120.330,306.677 120.330 C 306.182 120.330,305.776 120.195,305.776 120.030 C 305.776 119.865,305.506 119.730,305.176 119.730 C 304.846 119.730,304.576 119.595,304.576 119.430 C 304.576 119.265,304.171 119.130,303.676 119.130 C 303.181 119.130,302.776 118.995,302.776 118.830 C 302.776 118.665,302.371 118.530,301.875 118.530 C 301.380 118.530,300.975 118.395,300.975 118.230 C 300.975 118.065,300.638 117.929,300.225 117.929 C 299.812 117.929,299.475 117.794,299.475 117.629 C 299.475 117.464,299.129 117.329,298.707 117.329 C 298.285 117.329,298.005 117.223,298.085 117.093 C 298.166 116.963,297.870 116.827,297.428 116.790 C 296.986 116.754,296.579 116.590,296.524 116.427 C 296.469 116.263,296.165 116.129,295.849 116.129 C 295.533 116.129,295.274 116.023,295.274 115.894 C 295.274 115.765,294.927 115.631,294.504 115.596 C 294.080 115.561,293.531 115.329,293.282 115.081 C 293.034 114.832,292.637 114.629,292.402 114.629 C 292.166 114.629,291.973 114.494,291.973 114.329 C 291.973 114.164,291.568 114.029,291.073 114.029 C 290.578 114.029,290.173 113.893,290.173 113.728 C 290.173 113.563,289.902 113.428,289.572 113.428 C 289.242 113.428,288.972 113.293,288.972 113.128 C 288.972 112.963,288.567 112.828,288.072 112.828 C 287.577 112.828,287.172 112.726,287.172 112.602 C 287.172 112.412,286.372 112.071,284.621 111.514 C 283.841 111.266,283.074 110.959,282.600 110.706 C 282.313 110.553,281.773 110.426,281.399 110.423 C 280.851 110.419,280.807 110.362,281.170 110.128 C 281.512 109.907,281.385 109.836,280.645 109.832 C 280.109 109.830,279.670 109.692,279.670 109.527 C 279.670 109.362,279.408 109.227,279.087 109.227 C 278.767 109.227,278.422 109.092,278.320 108.927 C 278.218 108.762,277.737 108.627,277.252 108.627 C 276.766 108.627,276.369 108.492,276.369 108.327 C 276.369 108.162,276.048 108.027,275.656 108.027 C 275.263 108.027,274.774 107.824,274.569 107.577 C 274.363 107.329,274.009 107.127,273.782 107.127 C 273.554 107.127,273.368 106.992,273.368 106.827 C 273.368 106.662,273.098 106.527,272.768 106.527 C 272.438 106.527,272.168 106.404,272.168 106.255 C 272.168 106.105,271.918 106.048,271.613 106.128 C 271.307 106.208,270.868 106.094,270.637 105.875 C 270.154 105.416,268.312 104.726,267.571 104.726 C 267.293 104.726,267.067 104.591,267.067 104.426 C 267.067 104.261,266.797 104.126,266.467 104.126 C 266.137 104.126,265.866 103.991,265.866 103.826 C 265.866 103.661,265.543 103.526,265.147 103.526 C 264.751 103.526,263.665 103.125,262.735 102.636 C 261.804 102.146,261.135 101.910,261.248 102.110 C 261.400 102.381,261.349 102.379,261.049 102.101 C 260.827 101.894,260.402 101.725,260.105 101.725 C 259.808 101.725,259.565 101.590,259.565 101.425 C 259.565 101.260,259.235 101.125,258.832 101.125 C 258.430 101.125,258.016 100.990,257.914 100.825 C 257.812 100.660,257.483 100.525,257.183 100.525 C 256.883 100.525,256.471 100.324,256.267 100.078 C 256.063 99.833,255.790 99.697,255.661 99.777 C 255.532 99.856,255.346 99.711,255.247 99.454 C 255.149 99.197,254.951 99.059,254.807 99.148 C 254.473 99.355,252.063 98.416,252.063 98.079 C 252.063 97.939,251.658 97.824,251.163 97.824 C 250.668 97.824,250.263 97.689,250.263 97.524 C 250.263 97.359,250.000 97.224,249.680 97.224 C 249.360 97.224,249.014 97.089,248.912 96.924 C 248.810 96.759,248.330 96.624,247.844 96.624 C 247.359 96.624,246.961 96.523,246.959 96.399 C 246.956 96.064,245.442 95.424,244.651 95.424 C 244.272 95.424,243.961 95.289,243.961 95.124 C 243.961 94.959,243.691 94.824,243.361 94.824 C 243.031 94.824,242.761 94.689,242.761 94.524 C 242.761 94.359,242.356 94.224,241.860 94.224 C 241.365 94.224,240.960 94.089,240.960 93.923 C 240.960 93.758,240.698 93.623,240.378 93.623 C 240.057 93.623,239.712 93.488,239.610 93.323 C 239.508 93.158,239.095 93.023,238.692 93.023 C 238.289 93.023,237.993 92.873,238.035 92.689 C 238.076 92.505,237.772 92.299,237.359 92.230 C 236.947 92.162,236.564 91.975,236.509 91.814 C 236.454 91.654,236.216 91.523,235.980 91.523 C 235.744 91.523,235.316 91.401,235.030 91.252 C 234.743 91.103,233.935 90.811,233.233 90.604 C 232.532 90.396,231.958 90.143,231.958 90.040 C 231.958 89.937,231.642 89.827,231.256 89.795 C 230.870 89.763,230.171 89.538,229.702 89.295 C 229.234 89.052,228.739 88.921,228.604 89.005 C 228.468 89.089,228.357 89.015,228.357 88.840 C 228.357 88.665,228.153 88.522,227.903 88.522 C 227.653 88.522,227.147 88.366,226.778 88.175 C 225.333 87.428,225.044 87.322,224.460 87.322 C 224.128 87.322,223.856 87.214,223.856 87.082 C 223.856 86.801,222.090 86.122,221.359 86.122 C 221.082 86.122,220.855 85.986,220.855 85.821 C 220.855 85.656,220.596 85.521,220.280 85.521 C 219.964 85.521,219.653 85.365,219.589 85.174 C 219.525 84.983,219.148 84.777,218.750 84.716 C 218.353 84.655,217.576 84.339,217.024 84.013 C 216.471 83.687,215.825 83.421,215.587 83.421 C 215.349 83.421,215.152 83.252,215.149 83.046 C 215.146 82.796,215.048 82.821,214.854 83.121 C 214.660 83.421,214.561 83.446,214.558 83.196 C 214.556 82.989,214.378 82.821,214.163 82.821 C 213.541 82.821,212.158 82.099,212.151 81.770 C 212.147 81.605,212.013 81.673,211.853 81.920 C 211.659 82.221,211.561 82.246,211.557 81.995 C 211.555 81.789,211.283 81.620,210.953 81.620 C 210.623 81.620,210.353 81.485,210.353 81.320 C 210.353 81.155,210.110 81.020,209.812 81.020 C 209.515 81.020,209.090 80.851,208.868 80.645 C 208.540 80.340,208.509 80.354,208.702 80.720 C 208.896 81.086,208.865 81.100,208.536 80.795 C 208.314 80.589,207.900 80.420,207.617 80.420 C 207.334 80.420,207.057 80.286,207.002 80.123 C 206.947 79.959,206.530 79.795,206.077 79.757 C 205.623 79.720,205.251 79.583,205.251 79.454 C 205.251 79.325,204.981 79.220,204.651 79.220 C 204.321 79.220,204.051 79.085,204.051 78.920 C 204.051 78.755,203.789 78.620,203.469 78.620 C 203.148 78.620,202.803 78.485,202.701 78.320 C 202.599 78.155,202.200 78.020,201.815 78.020 C 201.430 78.020,201.037 77.817,200.942 77.569 C 200.847 77.322,200.493 77.119,200.155 77.119 C 199.818 77.119,199.307 76.993,199.021 76.839 C 198.734 76.685,198.061 76.382,197.524 76.165 C 196.988 75.949,196.549 75.700,196.549 75.611 C 196.549 75.522,196.184 75.419,195.737 75.383 C 195.291 75.346,194.791 75.181,194.627 75.017 C 194.463 74.853,194.078 74.719,193.771 74.719 C 193.464 74.719,193.296 74.584,193.398 74.419 C 193.504 74.248,193.251 74.119,192.816 74.119 C 192.394 74.119,192.048 73.983,192.048 73.818 C 192.048 73.653,191.643 73.518,191.148 73.518 C 190.653 73.518,190.248 73.383,190.248 73.218 C 190.248 73.053,189.902 72.918,189.480 72.918 C 189.057 72.918,188.778 72.812,188.858 72.682 C 188.938 72.552,188.650 72.416,188.217 72.380 C 187.785 72.344,187.348 72.181,187.247 72.018 C 187.146 71.855,186.699 71.691,186.255 71.654 C 185.810 71.617,185.446 71.481,185.446 71.352 C 185.446 71.223,185.109 71.118,184.696 71.118 C 184.284 71.118,183.946 70.983,183.946 70.818 C 183.946 70.653,183.608 70.518,183.196 70.518 C 182.783 70.518,182.446 70.385,182.446 70.223 C 182.446 70.061,182.108 69.844,181.695 69.741 C 181.283 69.637,180.945 69.418,180.945 69.253 C 180.945 69.088,180.753 69.027,180.517 69.117 C 180.282 69.208,179.927 69.087,179.730 68.849 C 179.533 68.612,178.983 68.417,178.508 68.417 C 178.033 68.417,177.644 68.282,177.644 68.117 C 177.644 67.952,177.382 67.817,177.062 67.817 C 176.742 67.817,176.396 67.682,176.294 67.517 C 176.192 67.352,175.779 67.217,175.376 67.217 C 174.973 67.217,174.644 67.082,174.644 66.917 C 174.644 66.752,174.374 66.617,174.044 66.617 C 173.713 66.617,173.443 66.482,173.443 66.317 C 173.443 66.152,173.119 66.017,172.722 66.017 C 172.097 66.017,171.264 65.684,168.871 64.479 C 168.585 64.334,168.086 64.216,167.764 64.216 C 167.441 64.216,167.094 64.081,166.992 63.916 C 166.890 63.751,166.477 63.616,166.074 63.616 C 165.671 63.616,165.341 63.481,165.341 63.316 C 165.341 63.151,165.004 63.016,164.591 63.016 C 164.124 63.016,163.841 62.846,163.841 62.566 C 163.841 62.316,163.574 62.116,163.241 62.116 C 162.911 62.116,162.574 62.114,162.493 62.112 C 162.411 62.109,161.867 61.839,161.283 61.511 C 160.700 61.184,160.023 60.915,159.781 60.915 C 159.538 60.915,159.340 60.780,159.340 60.615 C 159.340 60.450,159.002 60.315,158.590 60.315 C 158.177 60.315,157.839 60.180,157.839 60.015 C 157.839 59.850,157.502 59.715,157.089 59.715 C 156.677 59.715,156.339 59.580,156.339 59.415 C 156.339 59.250,155.934 59.115,155.439 59.115 C 154.944 59.115,154.539 58.980,154.539 58.815 C 154.539 58.650,154.269 58.515,153.938 58.515 C 153.608 58.515,153.338 58.380,153.338 58.215 C 153.338 58.050,152.933 57.914,152.438 57.914 C 151.943 57.914,151.538 57.779,151.538 57.614 C 151.538 57.449,151.276 57.314,150.955 57.314 C 150.635 57.314,150.290 57.179,150.188 57.014 C 150.086 56.849,149.672 56.714,149.270 56.714 C 148.867 56.714,148.537 56.579,148.537 56.414 C 148.537 56.249,148.192 56.114,147.769 56.114 C 147.334 56.114,147.082 55.984,147.187 55.814 C 147.295 55.639,146.987 55.514,146.445 55.514 C 145.897 55.514,145.447 55.330,145.345 55.064 C 145.250 54.816,144.916 54.614,144.604 54.614 C 144.292 54.614,144.036 54.464,144.036 54.281 C 144.036 54.099,143.850 54.021,143.622 54.108 C 143.395 54.195,143.059 54.117,142.876 53.934 C 142.693 53.751,142.244 53.556,141.878 53.500 C 141.511 53.444,141.133 53.271,141.036 53.115 C 140.940 52.960,140.428 52.799,139.898 52.759 C 139.368 52.719,138.935 52.579,138.935 52.449 C 138.935 52.319,138.665 52.213,138.335 52.213 C 138.005 52.213,137.734 52.078,137.734 51.913 C 137.734 51.748,137.405 51.613,137.002 51.613 C 136.599 51.613,136.186 51.478,136.084 51.313 C 135.982 51.148,135.636 51.013,135.316 51.013 C 134.996 51.013,134.734 50.878,134.734 50.713 C 134.734 50.548,134.388 50.413,133.966 50.413 C 133.530 50.413,133.278 50.283,133.383 50.113 C 133.494 49.934,133.136 49.812,132.501 49.812 C 131.913 49.812,131.433 49.677,131.433 49.512 C 131.433 49.347,131.163 49.212,130.833 49.212 C 130.503 49.212,130.233 49.077,130.233 48.912 C 130.233 48.747,129.827 48.612,129.330 48.612 L 128.428 48.612 128.505 69.692 M152.138 185.929 C 152.138 186.229,151.972 186.347,151.698 186.242 C 151.455 186.149,151.177 186.202,151.080 186.360 C 150.982 186.518,150.438 186.647,149.870 186.647 C 149.302 186.647,148.837 186.782,148.837 186.947 C 148.837 187.112,148.697 187.247,148.525 187.247 C 148.353 187.247,147.922 187.517,147.568 187.847 C 147.213 188.177,146.679 188.447,146.380 188.447 C 146.081 188.447,145.836 188.582,145.836 188.747 C 145.836 188.912,145.161 189.047,144.336 189.047 C 143.338 189.047,142.834 189.173,142.831 189.422 C 142.828 189.672,142.730 189.647,142.536 189.347 C 142.342 189.047,142.243 189.022,142.240 189.272 C 142.238 189.479,142.029 189.647,141.776 189.647 C 141.523 189.647,141.239 189.850,141.144 190.098 C 141.049 190.345,140.741 190.548,140.459 190.548 C 140.178 190.548,139.416 190.804,138.766 191.117 C 138.116 191.431,137.247 191.734,136.834 191.792 C 136.422 191.850,136.017 191.965,135.934 192.048 C 135.529 192.453,134.376 192.948,133.838 192.948 C 133.505 192.948,133.233 193.083,133.233 193.248 C 133.233 193.413,132.896 193.548,132.483 193.548 C 132.071 193.548,131.733 193.683,131.733 193.848 C 131.733 194.014,131.394 194.149,130.979 194.149 C 130.201 194.149,129.050 194.670,128.662 195.199 C 128.088 195.979,128.407 237.359,128.986 237.359 C 129.705 237.359,131.433 236.496,131.433 236.137 C 131.433 235.984,131.838 235.859,132.333 235.859 C 132.828 235.859,133.233 235.724,133.233 235.559 C 133.233 235.394,133.571 235.259,133.983 235.259 C 134.396 235.259,134.734 235.124,134.734 234.959 C 134.734 234.794,135.063 234.659,135.466 234.659 C 135.869 234.659,136.282 234.524,136.384 234.359 C 136.486 234.194,136.832 234.059,137.152 234.059 C 137.472 234.059,137.734 233.923,137.734 233.758 C 137.734 233.593,138.068 233.458,138.475 233.458 C 138.883 233.458,139.697 233.188,140.285 232.858 C 140.873 232.528,141.628 232.258,141.962 232.258 C 142.297 232.258,142.488 232.123,142.386 231.958 C 142.277 231.783,142.583 231.658,143.118 231.658 C 143.623 231.658,144.036 231.523,144.036 231.358 C 144.036 231.193,144.475 231.056,145.011 231.053 C 145.597 231.050,145.839 230.955,145.617 230.814 C 145.385 230.666,145.775 230.442,146.667 230.211 C 148.257 229.799,150.038 228.942,150.038 228.589 C 150.038 228.461,150.451 228.357,150.955 228.357 C 151.491 228.357,151.796 228.232,151.688 228.057 C 151.586 227.892,151.773 227.757,152.103 227.757 C 152.433 227.757,152.786 227.622,152.888 227.457 C 152.990 227.292,153.403 227.157,153.806 227.157 C 154.209 227.157,154.539 227.022,154.539 226.857 C 154.539 226.692,155.019 226.557,155.607 226.557 C 156.242 226.557,156.599 226.435,156.489 226.257 C 156.384 226.086,156.636 225.956,157.072 225.956 C 157.494 225.956,157.839 225.821,157.839 225.656 C 157.839 225.491,158.093 225.356,158.403 225.356 C 158.713 225.356,159.139 225.148,159.351 224.893 C 159.563 224.637,159.917 224.498,160.138 224.583 C 160.359 224.668,160.540 224.636,160.540 224.512 C 160.540 224.202,162.369 223.538,162.685 223.733 C 162.825 223.820,162.941 223.756,162.941 223.591 C 162.941 223.426,163.214 223.343,163.549 223.407 C 163.883 223.472,164.078 223.397,163.981 223.240 C 163.885 223.084,164.084 222.956,164.423 222.956 C 164.792 222.956,165.041 222.760,165.041 222.471 C 165.041 222.130,165.242 222.023,165.716 222.112 C 166.173 222.198,166.654 221.967,167.205 221.397 C 167.753 220.830,167.875 220.555,167.580 220.555 C 167.339 220.555,167.142 220.353,167.142 220.105 C 167.142 219.857,167.007 219.655,166.842 219.655 C 166.677 219.655,166.542 219.250,166.542 218.755 C 166.542 218.260,166.407 217.854,166.242 217.854 C 166.077 217.854,165.941 217.584,165.941 217.254 C 165.941 216.924,165.806 216.654,165.641 216.654 C 165.476 216.654,165.341 216.384,165.341 216.054 C 165.341 215.724,165.206 215.454,165.041 215.454 C 164.876 215.454,164.741 214.981,164.741 214.404 C 164.741 213.826,164.606 213.353,164.441 213.353 C 164.276 213.353,164.141 213.083,164.141 212.753 C 164.141 212.423,164.006 212.153,163.841 212.153 C 163.676 212.153,163.541 211.748,163.541 211.253 C 163.541 210.758,163.406 210.353,163.241 210.353 C 163.076 210.353,162.941 210.083,162.941 209.752 C 162.941 209.422,162.806 209.152,162.641 209.152 C 162.476 209.152,162.341 208.747,162.341 208.252 C 162.341 207.757,162.206 207.352,162.041 207.352 C 161.875 207.352,161.740 207.014,161.740 206.602 C 161.740 206.135,161.570 205.851,161.290 205.851 C 160.990 205.851,160.840 205.551,160.840 204.951 C 160.840 204.456,160.705 204.051,160.540 204.051 C 160.375 204.051,160.240 203.781,160.240 203.451 C 160.240 203.121,160.105 202.851,159.940 202.851 C 159.775 202.851,159.640 202.446,159.640 201.950 C 159.640 201.455,159.505 201.050,159.340 201.050 C 159.175 201.050,159.040 200.780,159.040 200.450 C 159.040 200.120,158.905 199.850,158.740 199.850 C 158.575 199.850,158.440 199.377,158.440 198.800 C 158.440 198.222,158.305 197.749,158.140 197.749 C 157.974 197.749,157.839 197.479,157.839 197.149 C 157.839 196.819,157.704 196.549,157.539 196.549 C 157.374 196.549,157.239 196.279,157.239 195.949 C 157.239 195.619,157.104 195.349,156.939 195.349 C 156.774 195.349,156.639 194.944,156.639 194.449 C 156.639 193.953,156.504 193.548,156.339 193.548 C 156.174 193.548,156.039 193.278,156.039 192.948 C 156.039 192.618,155.904 192.348,155.739 192.348 C 155.574 192.348,155.439 191.875,155.439 191.298 C 155.439 190.720,155.304 190.248,155.139 190.248 C 154.974 190.248,154.839 189.977,154.839 189.647 C 154.839 189.317,154.704 189.047,154.539 189.047 C 154.374 189.047,154.239 188.642,154.239 188.147 C 154.239 187.652,154.094 187.247,153.917 187.247 C 153.118 187.247,152.492 186.087,153.088 185.710 C 153.375 185.527,153.298 185.454,152.813 185.451 C 152.391 185.448,152.138 185.627,152.138 185.929 " stroke="none" fill="#04d404" fill-rule="evenodd"></path><path id="path4" d="M309.306 142.357 C 309.263 153.812,309.329 163.121,309.452 163.044 C 309.576 162.968,309.677 153.791,309.677 142.650 C 309.677 127.262,309.762 122.447,310.028 122.612 C 310.268 122.760,310.316 122.662,310.179 122.305 C 310.068 122.017,309.977 121.725,309.977 121.656 C 309.977 121.587,309.844 121.530,309.681 121.530 C 309.490 121.530,309.357 128.915,309.306 142.357 M269.317 147.024 C 271.663 148.001,273.173 148.539,272.918 148.309 C 272.524 147.953,269.483 146.731,269.052 146.756 C 268.868 146.766,268.987 146.887,269.317 147.024 M275.746 149.598 C 277.137 150.167,278.323 150.584,278.383 150.524 C 278.518 150.389,273.935 148.528,273.518 148.549 C 273.353 148.557,274.356 149.029,275.746 149.598 M287.812 154.379 C 288.065 154.631,290.173 155.451,290.173 155.297 C 290.173 155.214,289.683 154.942,289.086 154.693 C 287.979 154.230,287.560 154.127,287.812 154.379 M292.098 156.201 C 293.075 156.607,293.922 156.891,293.981 156.832 C 294.120 156.692,291.094 155.435,290.658 155.452 C 290.473 155.459,291.122 155.796,292.098 156.201 M295.543 157.567 C 296.268 157.889,296.915 158.099,296.980 158.033 C 297.110 157.904,294.798 156.926,294.443 156.960 C 294.322 156.972,294.817 157.245,295.543 157.567 M189.238 171.675 C 188.832 172.255,187.935 172.229,188.294 171.648 C 188.507 171.304,186.592 171.621,186.122 172.008 C 185.915 172.178,185.746 172.234,185.746 172.134 C 185.746 172.034,185.324 172.209,184.807 172.523 C 184.290 172.837,183.683 173.023,183.457 172.937 C 182.334 172.506,183.235 173.370,184.414 173.855 C 185.166 174.164,186.006 174.772,186.282 175.206 C 186.557 175.639,186.859 176.062,186.952 176.144 C 187.311 176.461,187.899 178.762,187.801 179.461 C 187.697 180.193,187.684 180.195,183.721 180.279 C 179.515 180.367,178.907 180.624,180.412 181.678 C 181.307 182.305,181.943 182.267,182.596 181.545 C 183.035 181.060,183.516 180.946,185.118 180.950 C 187.340 180.955,188.224 181.288,187.619 181.893 C 187.414 182.098,187.247 182.451,187.247 182.677 C 187.247 184.689,178.639 186.783,178.019 184.921 C 177.951 184.715,177.697 184.546,177.456 184.546 C 175.424 184.546,173.890 179.420,175.091 176.639 C 175.308 176.137,175.270 176.122,174.687 176.487 C 174.082 176.865,174.044 177.124,174.044 180.857 C 174.044 185.477,174.005 185.537,171.110 185.386 L 169.392 185.296 169.313 182.296 C 169.230 179.178,169.062 178.196,168.701 178.707 C 168.586 178.870,168.093 179.137,167.605 179.301 C 166.549 179.657,166.313 180.332,166.271 183.115 C 166.237 185.428,166.068 185.561,163.371 185.390 L 161.890 185.296 161.801 183.397 C 161.688 181.020,160.840 181.242,160.840 183.649 L 160.840 185.078 159.504 185.279 C 158.134 185.484,156.126 185.254,155.586 184.830 C 155.156 184.492,153.173 184.976,153.263 185.397 C 153.305 185.589,153.203 185.746,153.038 185.746 C 152.873 185.746,152.772 185.912,152.813 186.114 C 152.916 186.620,153.527 187.247,153.917 187.247 C 154.094 187.247,154.239 187.652,154.239 188.147 C 154.239 188.642,154.374 189.047,154.539 189.047 C 154.704 189.047,154.839 189.317,154.839 189.647 C 154.839 189.977,154.974 190.248,155.139 190.248 C 155.304 190.248,155.439 190.720,155.439 191.298 C 155.439 191.875,155.574 192.348,155.739 192.348 C 155.904 192.348,156.039 192.618,156.039 192.948 C 156.039 193.278,156.174 193.548,156.339 193.548 C 156.504 193.548,156.639 193.953,156.639 194.449 C 156.639 194.944,156.774 195.349,156.939 195.349 C 157.104 195.349,157.239 195.619,157.239 195.949 C 157.239 196.279,157.374 196.549,157.539 196.549 C 157.704 196.549,157.839 196.819,157.839 197.149 C 157.839 197.479,157.974 197.749,158.140 197.749 C 158.305 197.749,158.440 198.222,158.440 198.800 C 158.440 199.377,158.575 199.850,158.740 199.850 C 158.905 199.850,159.040 200.120,159.040 200.450 C 159.040 200.780,159.175 201.050,159.340 201.050 C 159.505 201.050,159.640 201.455,159.640 201.950 C 159.640 202.446,159.775 202.851,159.940 202.851 C 160.105 202.851,160.240 203.121,160.240 203.451 C 160.240 203.781,160.375 204.051,160.540 204.051 C 160.705 204.051,160.840 204.456,160.840 204.951 C 160.840 205.551,160.990 205.851,161.290 205.851 C 161.570 205.851,161.740 206.135,161.740 206.602 C 161.740 207.014,161.875 207.352,162.041 207.352 C 162.206 207.352,162.341 207.757,162.341 208.252 C 162.341 208.747,162.476 209.152,162.641 209.152 C 162.806 209.152,162.941 209.422,162.941 209.752 C 162.941 210.083,163.076 210.353,163.241 210.353 C 163.406 210.353,163.541 210.758,163.541 211.253 C 163.541 211.748,163.676 212.153,163.841 212.153 C 164.006 212.153,164.141 212.423,164.141 212.753 C 164.141 213.083,164.276 213.353,164.441 213.353 C 164.606 213.353,164.741 213.826,164.741 214.404 C 164.741 214.981,164.876 215.454,165.041 215.454 C 165.206 215.454,165.341 215.724,165.341 216.054 C 165.341 216.384,165.476 216.654,165.641 216.654 C 165.806 216.654,165.941 216.924,165.941 217.254 C 165.941 217.584,166.077 217.854,166.242 217.854 C 166.407 217.854,166.542 218.260,166.542 218.755 C 166.542 219.250,166.677 219.655,166.842 219.655 C 167.007 219.655,167.142 219.857,167.142 220.105 C 167.142 220.353,167.351 220.555,167.607 220.555 C 167.936 220.555,167.835 220.775,167.263 221.305 C 166.818 221.718,166.543 222.056,166.651 222.056 C 166.869 222.056,169.270 221.019,170.443 220.419 C 170.855 220.207,171.362 220.095,171.568 220.170 C 171.774 220.244,171.943 220.159,171.943 219.980 C 171.943 219.801,172.146 219.655,172.393 219.655 C 172.641 219.655,172.843 219.520,172.843 219.355 C 172.843 219.190,173.240 219.055,173.726 219.055 C 174.211 219.055,174.692 218.920,174.794 218.755 C 174.896 218.590,175.309 218.455,175.712 218.455 C 176.114 218.455,176.444 218.320,176.444 218.155 C 176.444 217.989,176.706 217.854,177.027 217.854 C 177.347 217.854,177.676 217.746,177.758 217.614 C 177.840 217.481,178.590 217.187,179.426 216.959 C 180.262 216.732,180.945 216.435,180.945 216.300 C 180.945 216.165,181.215 216.054,181.545 216.054 C 181.875 216.054,182.146 215.941,182.146 215.804 C 182.146 215.666,182.348 215.531,182.596 215.504 C 182.843 215.476,183.248 215.431,183.496 215.404 C 183.743 215.376,183.946 215.254,183.946 215.132 C 183.946 215.010,184.686 214.677,185.590 214.392 C 186.494 214.108,187.161 213.758,187.073 213.614 C 186.984 213.471,187.249 213.353,187.662 213.353 C 188.074 213.353,188.495 213.218,188.597 213.053 C 188.699 212.888,189.112 212.753,189.515 212.753 C 189.918 212.753,190.248 212.618,190.248 212.453 C 190.248 212.288,190.518 212.153,190.848 212.153 C 191.178 212.153,191.448 212.018,191.448 211.853 C 191.448 211.688,191.853 211.553,192.348 211.553 C 192.843 211.553,193.248 211.447,193.248 211.318 C 193.248 211.065,195.939 210.176,196.346 210.295 C 196.482 210.335,196.508 210.229,196.404 210.060 C 196.294 209.882,196.522 209.752,196.945 209.752 C 197.347 209.752,197.843 209.551,198.047 209.306 C 198.251 209.060,198.526 208.926,198.658 209.007 C 198.790 209.089,198.951 209.000,199.014 208.808 C 199.078 208.617,199.461 208.431,199.865 208.395 C 200.269 208.359,200.568 208.182,200.529 208.002 C 200.489 207.821,200.660 207.751,200.908 207.846 C 201.155 207.941,201.537 207.870,201.757 207.688 C 201.976 207.506,202.245 207.446,202.353 207.554 C 202.462 207.663,202.551 207.404,202.551 206.980 C 202.551 206.355,202.665 206.238,203.151 206.365 C 203.891 206.558,203.930 206.961,203.226 207.145 C 202.783 207.261,202.777 207.288,203.189 207.317 C 203.458 207.336,203.846 207.149,204.051 206.902 C 204.309 206.591,204.320 206.452,204.088 206.452 C 203.903 206.452,203.751 206.245,203.751 205.992 C 203.751 205.739,203.548 205.455,203.301 205.360 C 203.053 205.265,202.851 204.931,202.851 204.619 C 202.851 204.307,202.716 204.051,202.551 204.051 C 202.386 204.051,202.251 203.646,202.251 203.151 C 202.251 202.656,202.116 202.251,201.950 202.251 C 201.785 202.251,201.650 201.980,201.650 201.650 C 201.650 201.320,201.515 201.050,201.350 201.050 C 201.185 201.050,201.050 200.645,201.050 200.150 C 201.050 199.655,200.915 199.250,200.750 199.250 C 200.585 199.250,200.450 198.912,200.450 198.500 C 200.450 198.087,200.315 197.749,200.150 197.749 C 199.985 197.749,199.850 197.344,199.850 196.849 C 199.850 196.354,199.715 195.949,199.550 195.949 C 199.385 195.949,199.250 195.679,199.250 195.349 C 199.250 195.015,199.050 194.749,198.800 194.749 C 198.500 194.749,198.350 194.449,198.350 193.848 C 198.350 193.353,198.215 192.948,198.050 192.948 C 197.884 192.948,197.749 192.678,197.749 192.348 C 197.749 192.018,197.614 191.748,197.449 191.748 C 197.284 191.748,197.149 191.410,197.149 190.998 C 197.149 190.585,197.014 190.248,196.849 190.248 C 196.684 190.248,196.549 189.842,196.549 189.347 C 196.549 188.852,196.414 188.447,196.249 188.447 C 196.084 188.447,195.949 188.177,195.949 187.847 C 195.949 187.517,195.814 187.247,195.649 187.247 C 195.484 187.247,195.349 186.848,195.349 186.362 C 195.349 185.494,195.314 185.474,193.623 185.386 L 191.898 185.296 191.815 181.020 L 191.731 176.744 190.990 176.744 C 190.276 176.744,190.248 176.668,190.248 174.794 C 190.248 173.549,190.125 172.843,189.910 172.843 C 189.695 172.843,189.638 172.516,189.752 171.943 C 189.965 170.880,189.841 170.815,189.238 171.675 M180.270 177.162 C 179.435 177.796,179.639 177.945,181.320 177.935 L 182.896 177.925 182.187 177.334 C 181.363 176.647,180.992 176.614,180.270 177.162 M151.538 185.896 C 151.538 186.144,151.673 186.347,151.838 186.347 C 152.003 186.347,152.138 186.144,152.138 185.896 C 152.138 185.649,152.003 185.446,151.838 185.446 C 151.673 185.446,151.538 185.649,151.538 185.896 M150.038 186.347 C 149.672 186.583,149.710 186.638,150.245 186.642 C 150.606 186.645,150.986 186.512,151.088 186.347 C 151.324 185.965,150.629 185.965,150.038 186.347 M165.041 222.356 C 165.041 222.732,165.360 222.732,165.941 222.356 C 166.305 222.120,166.262 222.064,165.716 222.060 C 165.345 222.058,165.041 222.191,165.041 222.356 " stroke="none" fill="#04b804" fill-rule="evenodd"></path></g></svg>